<?xml version="1.0" encoding="UTF-8" standalone="no"?>
<svg
   xmlns:dc="http://purl.org/dc/elements/1.1/"
   xmlns:cc="http://creativecommons.org/ns#"
   xmlns:rdf="http://www.w3.org/1999/02/22-rdf-syntax-ns#"
   xmlns:svg="http://www.w3.org/2000/svg"
   xmlns="http://www.w3.org/2000/svg"
   xmlns:sodipodi="http://sodipodi.sourceforge.net/DTD/sodipodi-0.dtd"
   xmlns:inkscape="http://www.inkscape.org/namespaces/inkscape"
   width="4000"
   height="3000"
   viewBox="0 0 4000.0001 3000"
   version="1.1"
   id="svg911"
   sodipodi:docname="Kilroy.svg"
   inkscape:version="1.0.2 (e86c870879, 2021-01-15)">
  <metadata
     id="metadata917">
    <rdf:RDF>
      <cc:Work
         rdf:about="">
        <dc:format>image/svg+xml</dc:format>
        <dc:type
           rdf:resource="http://purl.org/dc/dcmitype/StillImage" />
        <dc:title />
      </cc:Work>
    </rdf:RDF>
  </metadata>
  <defs
     id="defs915" />
  <sodipodi:namedview
     pagecolor="#ffffff"
     bordercolor="#666666"
     borderopacity="1"
     objecttolerance="10"
     gridtolerance="10"
     guidetolerance="10"
     inkscape:pageopacity="0"
     inkscape:pageshadow="2"
     inkscape:window-width="1362"
     inkscape:window-height="724"
     id="namedview913"
     showgrid="false"
     inkscape:zoom="0.077089392"
     inkscape:cx="-676.52867"
     inkscape:cy="618.81547"
     inkscape:window-x="0"
     inkscape:window-y="20"
     inkscape:window-maximized="1"
     inkscape:current-layer="svg911"
     inkscape:document-rotation="0" />
  <g
     id="g917"
     transform="translate(2.3441327e-5,2005.1964)">
    <g
       id="svgGroup"
       stroke-linecap="round"
       fill-rule="evenodd"
       font-size="12px"
       stroke="#000"
       stroke-width="0.25mm"
       fill="none"
       style="fill:#000000;stroke:#000000;stroke-width:0.25mm"
       transform="matrix(3.074131,0,0,3.074131,501.79622,426.28234)">
      <path
         d="m 30.356,3.809 1.758,-0.293 a 10.203,10.203 0 0 1 1.607,1.731 12.465,12.465 0 0 1 0.639,0.954 11.469,11.469 0 0 1 1.168,2.577 10.459,10.459 0 0 1 0.199,0.743 6.715,6.715 0 0 1 0.174,1.5 6.245,6.245 0 0 1 -0.271,1.821 3.839,3.839 0 0 1 -1.487,2.034 5.495,5.495 0 0 1 -0.76,0.456 4.18,4.18 0 0 1 0.03,0.209 q 0.05,0.432 -0.03,0.67 a 2.772,2.772 0 0 1 -0.182,0.428 2.47,2.47 0 0 1 -0.062,0.109 1.087,1.087 0 0 0 -0.105,0.229 0.85,0.85 0 0 0 -0.041,0.259 0.425,0.425 0 0 0 0.034,0.158 q 0.082,0.202 0.356,0.477 a 9.254,9.254 0 0 0 -1.325,1.343 11.392,11.392 0 0 0 -0.628,0.854 15.144,15.144 0 0 0 -1.465,2.784 q -0.585,1.464 -0.927,2.929 a 20.403,20.403 0 0 0 -0.304,1.565 15.879,15.879 0 0 0 -0.136,1.17 38.056,38.056 0 0 1 4.356,-3.844 45.526,45.526 0 0 1 2.285,-1.625 120.59,120.59 0 0 0 3.356,-2.316 q 1.78,-1.276 3.285,-2.469 a 69.289,69.289 0 0 0 2.111,-1.526 50.638,50.638 0 0 0 1.844,-1.453 51.287,51.287 0 0 1 3.466,-2.637 q 1.758,-1.22 3.662,-2.343 A 57.769,57.769 0 0 0 56.09,8.317 64.704,64.704 0 0 0 56.821,7.812 q 0.976,-0.39 1.514,-0.195 0.537,0.195 1.025,0.488 A 2.085,2.085 0 0 0 59.373,7.99 Q 59.423,7.409 59.067,7.275 58.687,7.133 58.769,6.391 a 2.946,2.946 0 0 1 0.005,-0.043 18.485,18.485 0 0 0 1.76,-0.611 14.688,14.688 0 0 0 1.219,-0.561 q 1.318,-0.684 2.783,-1.27 a 46.514,46.514 0 0 1 1.465,1.694 51.964,51.964 0 0 1 0.488,0.601 3.441,3.441 0 0 0 2.432,1.302 4.603,4.603 0 0 0 0.205,0.017 6.635,6.635 0 0 0 0.473,0.862 q 0.291,0.444 0.628,0.77 a 3.552,3.552 0 0 0 0.315,0.272 53.973,53.973 0 0 0 1.66,1.221 q 0.83,0.585 1.416,1.416 a 2.886,2.886 0 0 1 0.345,0.68 q 0.247,0.678 0.323,1.68 a 10.932,10.932 0 0 1 0.015,0.227 27.443,27.443 0 0 1 -0.427,0.818 37.295,37.295 0 0 1 -0.5,0.891 8.001,8.001 0 0 0 -0.442,0.896 q -0.2,0.473 -0.373,1.024 a 14.601,14.601 0 0 0 -0.113,0.375 42.276,42.276 0 0 1 -3.394,2.811 36.585,36.585 0 0 1 -1.342,0.949 94.641,94.641 0 0 1 -4.883,3.076 515.833,515.833 0 0 0 -5.078,3.028 51.876,51.876 0 0 0 -3.828,2.558 60.303,60.303 0 0 0 -1.397,1.055 6.644,6.644 0 0 1 -1.458,1.557 6.909,6.909 0 0 1 -0.007,0.005 36.666,36.666 0 0 1 -1.806,1.319 q -0.928,0.635 -1.758,1.318 -0.83,0.684 -1.319,1.66 a 5.287,5.287 0 0 0 -0.321,0.01 q -0.148,0.009 -0.278,0.026 a 2.925,2.925 0 0 0 -0.084,0.013 q -0.293,0.049 -0.684,0.147 -0.39,0.781 -1.123,1.269 a 2.69,2.69 0 0 0 -0.758,0.746 2.56,2.56 0 0 0 -0.267,0.524 q 1.758,3.808 4.59,5.761 a 19.332,19.332 0 0 0 6.344,2.832 12.908,12.908 0 0 0 0.003,0 q 3.516,0.879 7.617,0.977 a 352.68,352.68 0 0 0 7.402,0.096 390.553,390.553 0 0 0 1.095,0.002 q 0.488,-0.098 0.439,-0.537 a 0.62,0.62 0 0 1 -0.003,-0.041 q -0.018,-0.394 0.54,-0.301 1.309,0.436 2.229,1.029 a 6.715,6.715 0 0 1 0.213,0.143 q 0.976,0.683 1.855,1.464 a 39.973,39.973 0 0 1 1.709,1.612 23.104,23.104 0 0 0 1.011,0.949 29.683,29.683 0 0 0 0.893,0.76 14.66,14.66 0 0 1 -0.52,3.386 10.567,10.567 0 0 1 -2.165,4.084 16.33,16.33 0 0 1 -3.852,3.231 21.192,21.192 0 0 1 -2.74,1.408 93.21,93.21 0 0 1 -2.36,0.052 q -2.293,0.021 -4.317,-0.083 A 49.984,49.984 0 0 1 59.458,67.285 31.858,31.858 0 0 1 51.157,65.137 Q 50.889,65.048 50.662,64.632 A 2.523,2.523 0 0 1 50.62,64.551 5.576,5.576 0 0 0 50.501,64.325 q -0.13,-0.232 -0.244,-0.373 A 1.128,1.128 0 0 0 50.18,63.867 2.659,2.659 0 0 0 48.743,63.46 3.216,3.216 0 0 0 48.422,63.477 q -0.976,0.097 -1.66,-0.196 a 7.036,7.036 0 0 1 -0.509,-0.256 q -0.83,-0.454 -2.236,-1.409 a 65.847,65.847 0 0 1 -0.136,-0.093 329.825,329.825 0 0 1 -1.916,-1.318 253.219,253.219 0 0 1 -1.746,-1.221 236.906,236.906 0 0 1 -3.836,-3.17 216.989,216.989 0 0 1 -0.119,-0.101 21.774,21.774 0 0 1 -3.369,-3.565 1.11,1.11 0 0 0 -0.23,-0.278 q -0.247,-0.21 -0.6,-0.21 a 1.955,1.955 0 0 1 -0.991,-0.273 2.324,2.324 0 0 1 -0.034,-0.02 q -3.418,2.149 -5.713,5.322 -2.295,3.174 -4.444,6.446 a 68.29,68.29 0 0 1 -4.541,6.152 q -2.392,2.881 -6.005,4.443 -1.018,0 -1.772,-0.306 A 3.42,3.42 0 0 1 8.481,73.389 6.729,6.729 0 0 1 7.016,72.51 37.386,37.386 0 0 0 5.649,71.484 4.19,4.19 0 0 0 4.25,70.84 4.842,4.842 0 0 0 4.087,70.801 q 0,-1.367 -0.538,-2.588 A 40.831,40.831 0 0 0 3.012,67.041 33.02,33.02 0 0 0 2.475,65.967 9.959,9.959 0 0 1 1.964,64.829 8.074,8.074 0 0 1 1.694,63.965 1.911,1.911 0 0 1 1.636,63.5 q 0,-0.693 0.516,-1.387 A 3.754,3.754 0 0 1 2.231,62.012 20.243,20.243 0 0 0 1.181,61.206 15.04,15.04 0 0 0 0.18,60.547 3.289,3.289 0 0 0 0.482,60.204 q 0.369,-0.49 0.333,-0.927 A 3.074,3.074 0 0 0 0.604,58.398 3.701,3.701 0 0 0 0.473,58.105 5.471,5.471 0 0 1 0.034,56.885 1.333,1.333 0 0 1 0,56.584 Q 0,56.07 0.376,55.469 A 0.829,0.829 0 0 0 0.511,55.423 Q 0.749,55.317 0.72,55.092 A 0.426,0.426 0 0 0 0.717,55.078 0.501,0.501 0 0 1 0.71,55.004 Q 0.707,54.76 0.962,54.59 l 0.146,-0.586 a 0.183,0.183 0 0 0 0.005,-0.045 q 0,-0.183 -0.347,-0.443 A 1.663,1.663 0 0 1 0.732,53.375 Q 0.63,52.847 1.006,52.661 a 0.728,0.728 0 0 1 0.053,-0.024 l 0.977,-0.391 a 54.704,54.704 0 0 1 0.874,-6.267 43.726,43.726 0 0 1 1.128,-4.426 139.685,139.685 0 0 1 3.32,-9.424 q 1.807,-4.59 3.613,-9.229 a 62.356,62.356 0 0 0 2.184,-6.77 74.399,74.399 0 0 0 0.795,-3.337 10.478,10.478 0 0 0 1.829,-2.49 12.109,12.109 0 0 0 0.27,-0.537 A 374.987,374.987 0 0 0 17.71,6.201 24.24,24.24 0 0 1 19.663,2.734 8.358,8.358 0 0 1 21.924,0.498 10.218,10.218 0 0 1 22.739,0 q 0.879,0.098 1.611,0.342 0.733,0.244 1.416,0.537 a 9.446,9.446 0 0 0 1.176,0.412 10.686,10.686 0 0 0 0.289,0.076 6.641,6.641 0 0 0 1.307,0.187 7.652,7.652 0 0 0 0.353,0.008 q 0.391,0.489 0.684,1.124 a 3.866,3.866 0 0 0 0.781,1.123 z"
         id="0"
         vector-effect="non-scaling-stroke"
         style="fill:#000000" />
      <path
         d="m 97.006,70.215 a 4.086,4.086 0 0 0 0.119,-0.26 q 0.674,-1.623 0.223,-4.33 a 41.058,41.058 0 0 1 -0.688,-7.43 39.266,39.266 0 0 1 0.053,-2.043 60.473,60.473 0 0 1 1.221,-9.326 86.051,86.051 0 0 1 2.49,-9.228 q 1.514,-4.59 3.272,-9.278 a 1.745,1.745 0 0 1 -0.828,-0.647 2.48,2.48 0 0 1 -0.295,-0.573 7.044,7.044 0 0 1 -0.238,-0.786 8.565,8.565 0 0 1 -0.202,-1.265 26.485,26.485 0 0 1 -0.097,-2.295 v -1.953 a 4.374,4.374 0 0 1 -0.559,-0.332 3.27,3.27 0 0 1 -1.101,-1.28 9.684,9.684 0 0 1 -0.733,-2.197 L 99.155,14.648 A 5.052,5.052 0 0 0 98.13,12.5 8.427,8.427 0 0 0 97.859,12.504 q -0.579,0.019 -1.084,0.118 a 4.761,4.761 0 0 0 -1.136,0.366 11.605,11.605 0 0 0 -0.377,0.189 10.165,10.165 0 0 0 -1.478,0.934 14.983,14.983 0 0 0 -0.052,0.04 16.228,16.228 0 0 0 -1.56,1.376 10.891,10.891 0 0 1 -1.66,1.368 q 0.196,1.66 -0.537,3.173 a 48.305,48.305 0 0 1 -0.33,0.67 q -0.517,1.027 -0.89,1.625 -0.383,0.766 -0.376,1.351 a 1.566,1.566 0 0 0 0.034,0.309 2.07,2.07 0 0 1 0.029,0.177 q 0.081,0.641 -0.176,1.581 -0.097,0.489 -0.586,0.635 a 1.486,1.486 0 0 0 -0.009,0.003 q -0.139,0.043 -0.247,0.106 a 0.674,0.674 0 0 0 -0.33,0.428 1.848,1.848 0 0 0 -0.071,0.51 q 0,0.236 0.058,0.483 a 2.744,2.744 0 0 0 0.16,0.472 2.553,2.553 0 0 1 0.217,1.034 q 0,0.307 -0.071,0.626 a 53.773,53.773 0 0 1 -2.099,7.715 q -1.319,3.711 -2.002,7.812 a 27.407,27.407 0 0 0 -0.089,0.742 31.216,31.216 0 0 0 -0.155,2.335 3356.923,3356.923 0 0 1 -0.098,3.173 47.253,47.253 0 0 1 -0.195,3.077 10.879,10.879 0 0 1 -0.194,1.259 8.253,8.253 0 0 1 -0.441,1.426 201.289,201.289 0 0 0 0.113,0.477 q 0.173,0.729 0.373,1.545 a 354.476,354.476 0 0 0 0.442,1.787 79.711,79.711 0 0 0 1.22,4.345 q 0.684,2.198 1.465,4.249 a 21.408,21.408 0 0 0 0.224,0.563 q 0.341,0.824 0.717,1.527 a 12.094,12.094 0 0 0 0.817,1.327 q 1.318,0.22 2.747,0.22 a 19.311,19.311 0 0 0 0.964,-0.024 9.345,9.345 0 0 0 1.064,-0.113 7.516,7.516 0 0 0 2.403,-0.815 5.401,5.401 0 0 0 1.136,-0.83 5.938,5.938 0 0 0 1.207,-1.66 z"
         id="1"
         vector-effect="non-scaling-stroke"
         style="fill:#000000" />
      <path
         d="m 136.704,70.801 -2.246,0.586 a 124.358,124.358 0 0 1 -2.857,0.879 155.942,155.942 0 0 1 -3.1,0.879 q -3.223,0.878 -6.446,0.878 a 15.821,15.821 0 0 1 -3.114,-0.288 q -1.885,-0.379 -3.353,-1.254 a 8.858,8.858 0 0 1 -1.248,-0.899 11.534,11.534 0 0 0 -0.238,-0.494 q -0.347,-0.678 -0.64,-0.971 a 7.247,7.247 0 0 1 -0.538,-0.83 2.205,2.205 0 0 1 -0.156,-0.36 q -0.123,-0.36 -0.185,-0.861 a 10.457,10.457 0 0 1 -1.712,-2.811 11.967,11.967 0 0 1 -0.144,-0.362 16.313,16.313 0 0 1 -0.928,-3.711 18.85,18.85 0 0 1 -0.152,-2.4 19.488,19.488 0 0 1 0.055,-1.458 19.521,19.521 0 0 1 0.49,-3.157 17.669,17.669 0 0 1 0.145,-0.554 2.553,2.553 0 0 0 0.191,-0.506 2.2,2.2 0 0 0 0.053,-0.275 10.195,10.195 0 0 1 0.056,-0.388 q 0.038,-0.231 0.09,-0.491 a 67.57,67.57 0 0 1 0.83,-3.027 9.214,9.214 0 0 1 0.603,-1.525 7.459,7.459 0 0 1 0.618,-1.014 2.259,2.259 0 0 1 -0.195,-0.928 q 0,-0.488 0.195,-1.025 a 14.582,14.582 0 0 1 0.526,-1.267 12.031,12.031 0 0 1 0.353,-0.687 1086.21,1086.21 0 0 0 0.963,-2.625 q 0.752,-2.056 1.332,-3.673 a 238.258,238.258 0 0 1 1.904,-5.127 282.933,282.933 0 0 0 3.125,-8.692 92.739,92.739 0 0 0 1.717,-5.638 110.934,110.934 0 0 0 0.92,-3.639 33.364,33.364 0 0 1 0.366,-0.226 q 0.513,-0.311 0.806,-0.458 a 21.591,21.591 0 0 1 0.28,-0.091 q 0.377,-0.12 0.657,-0.192 a 7.114,7.114 0 0 1 0.039,-0.01 30.122,30.122 0 0 0 1.777,0.814 q 1.08,0.454 2.325,0.895 a 19.477,19.477 0 0 0 1.388,0.438 q 0.7,0.19 1.312,0.288 a 7.671,7.671 0 0 0 1.206,0.104 12.989,12.989 0 0 1 0.314,0.202 q 0.51,0.34 0.663,0.531 a 5.712,5.712 0 0 0 0.244,0.286 4.741,4.741 0 0 0 0.146,0.153 19.564,19.564 0 0 1 1.5,2.014 17.365,17.365 0 0 1 0.356,0.574 3.922,3.922 0 0 1 0.459,1.218 q 0.167,0.81 0.078,1.818 a 9.222,9.222 0 0 1 -0.049,0.431 7.138,7.138 0 0 1 -0.209,0.299 q -0.432,0.58 -0.67,0.58 -0.488,1.953 -1.025,3.32 a 96.735,96.735 0 0 1 -1.123,2.735 56.897,56.897 0 0 0 -1.27,2.929 q -0.586,1.465 -0.976,3.614 a 4.972,4.972 0 0 0 -0.24,0.324 q -0.11,0.163 -0.189,0.314 a 2.166,2.166 0 0 0 -0.109,0.24 q -0.146,0.391 -0.341,0.879 a 22.725,22.725 0 0 1 -0.264,0.63 26.976,26.976 0 0 1 -0.176,0.396 2.498,2.498 0 0 1 -0.698,0.9 2.906,2.906 0 0 1 -0.034,0.027 23.856,23.856 0 0 1 -0.242,1.631 q -0.143,0.768 -0.328,1.417 a 10.255,10.255 0 0 1 -0.358,1.054 127.855,127.855 0 0 1 -1.318,3.125 79.725,79.725 0 0 0 -2.1,5.664 21.86,21.86 0 0 0 -0.779,3.23 29.341,29.341 0 0 0 -0.344,3.215 2.89,2.89 0 0 1 0.469,-0.145 2.194,2.194 0 0 1 0.459,-0.05 h 0.83 a 6.456,6.456 0 0 1 0.762,0.048 q 0.371,0.045 0.781,0.129 a 12.394,12.394 0 0 1 0.508,0.116 q 2.929,-1.562 6.396,-1.855 3.467,-0.293 6.885,-0.391 h 2.734 a 16.858,16.858 0 0 0 1.555,-0.069 13.653,13.653 0 0 0 0.984,-0.126 q 0.879,0.488 1.123,0.537 a 1.868,1.868 0 0 0 0.157,0.023 q 0.225,0.026 0.576,0.026 a 8.118,8.118 0 0 1 0.485,0.013 q 0.25,0.015 0.468,0.047 a 4.131,4.131 0 0 1 0.219,0.037 q 0.953,0.874 1.841,1.36 a 6.119,6.119 0 0 0 0.405,0.203 23.001,23.001 0 0 0 2.246,0.879 40.232,40.232 0 0 1 2.099,0.83 8.241,8.241 0 0 1 1.387,0.766 9.865,9.865 0 0 1 0.615,0.454 l 0.684,4.2 a 7.772,7.772 0 0 1 0.203,0.272 q 0.465,0.655 0.383,0.9 a 2.49,2.49 0 0 1 -0.036,0.439 q -0.044,0.241 -0.139,0.431 a 1.158,1.158 0 0 1 -0.216,0.301 l 0.196,1.075 A 12.734,12.734 0 0 0 159.076,69 q -0.607,0.156 -0.989,0.336 a 2.093,2.093 0 0 0 -0.338,0.195 q -0.537,0.391 -1.026,0.879 a 23.402,23.402 0 0 1 -0.363,0.043 q -0.338,0.037 -0.565,0.049 a 3.705,3.705 0 0 1 -0.195,0.006 h -0.635 a 9.703,9.703 0 0 0 -1.107,0.068 q -0.558,0.065 -1.189,0.19 a 21.191,21.191 0 0 0 -1.024,0.23 q -2.637,-0.879 -5.469,-0.879 a 26.175,26.175 0 0 0 -1.666,0.055 29.975,29.975 0 0 0 -0.58,0.043 l -2.343,0.195 a 28.253,28.253 0 0 1 -2.393,0.293 q -1.221,0.098 -2.49,0.098 z"
         id="2"
         vector-effect="non-scaling-stroke"
         style="fill:#000000" />
      <path
         d="m 205.356,20.605 v 1.172 a 8.896,8.896 0 0 1 1.904,2.491 25.303,25.303 0 0 1 1.151,2.578 28.296,28.296 0 0 1 0.168,0.449 l 1.172,3.223 a 23.838,23.838 0 0 0 1.367,3.076 3.568,3.568 0 0 0 -0.107,0.304 q -0.046,0.153 -0.068,0.288 a 1.482,1.482 0 0 0 -0.021,0.238 1.828,1.828 0 0 0 0.044,0.388 2.484,2.484 0 0 0 0.103,0.344 7.193,7.193 0 0 1 0.244,0.781 1.531,1.531 0 0 1 0.035,0.2 q 0.036,0.319 -0.022,0.78 a 5.978,5.978 0 0 1 -0.013,0.095 q -0.293,4.297 -2.783,6.933 a 20.161,20.161 0 0 1 -5.143,3.904 23.257,23.257 0 0 1 -0.863,0.442 47.567,47.567 0 0 1 -6.773,2.656 52.77,52.77 0 0 1 -0.746,0.225 q -4.004,1.172 -7.227,2.539 a 0.65,0.65 0 0 0 0.015,0.147 q 0.047,0.201 0.24,0.236 a 0.489,0.489 0 0 0 0.087,0.008 0.335,0.335 0 0 1 0.116,0.018 q 0.207,0.076 0.128,0.47 2.344,1.465 3.711,2.344 1.367,0.878 2.588,1.464 a 18.67,18.67 0 0 0 1.941,0.797 21.442,21.442 0 0 0 0.695,0.229 29.795,29.795 0 0 0 0.779,0.229 q 1.272,0.357 3.177,0.796 a 781.904,781.904 0 0 1 1.199,0.278 q 1.164,0.271 2.03,0.476 a 210.923,210.923 0 0 1 0.726,0.174 q 1.416,0.342 2.587,0.586 1.172,0.244 2.393,0.391 a 55.102,55.102 0 0 0 0.674,0.076 q 0.762,0.082 1.796,0.176 a 214.452,214.452 0 0 0 0.997,0.089 q 0.879,0.879 1.514,2.1 a 8.532,8.532 0 0 1 0.632,1.564 7.308,7.308 0 0 1 0.198,0.877 q 0.13,0.814 0.13,1.585 a 8.764,8.764 0 0 1 -0.033,0.759 q -0.092,1.059 -0.618,1.727 a 2.474,2.474 0 0 1 -0.065,0.08 q 0.092,0.277 0.403,0.248 a 0.734,0.734 0 0 0 0.036,-0.004 q 0.342,-0.049 0.733,0.049 -0.586,0.39 -0.977,0.976 l -0.781,1.172 a 5.506,5.506 0 0 1 -0.7,0.856 5.014,5.014 0 0 1 -0.179,0.17 q -0.488,0.439 -1.367,0.537 a 9.17,9.17 0 0 1 -2.185,0.536 q -2.316,0.288 -5.299,-0.36 a 24.305,24.305 0 0 1 -0.134,-0.03 q -4.589,-1.025 -11.621,-3.76 -3.515,-1.367 -5.713,-2.392 A 40.535,40.535 0 0 1 185.7,68.423 q -0.893,-0.476 -1.661,-0.953 a 23.794,23.794 0 0 1 -0.216,-0.136 q -1.611,-1.025 -2.93,-2.197 -0.906,-0.806 -2.066,-1.842 a 1875.13,1875.13 0 0 1 -1.108,-0.99 101.506,101.506 0 0 1 -0.521,1.834 q -0.582,1.969 -1.084,3.311 a 23.156,23.156 0 0 1 -0.299,0.763 15.551,15.551 0 0 1 -1.038,2.038 q -0.622,1.038 -1.452,2.112 -0.959,-0.147 -1.473,0.095 a 1.009,1.009 0 0 0 -0.285,0.198 7.026,7.026 0 0 1 -1.074,0.879 q -0.879,0.195 -1.27,0 a 3.834,3.834 0 0 1 -0.429,-0.249 3.13,3.13 0 0 1 -0.254,-0.19 3.755,3.755 0 0 0 -0.285,-0.214 q -0.15,-0.103 -0.327,-0.206 a 6.732,6.732 0 0 0 -0.121,-0.069 1.57,1.57 0 0 0 -0.345,-0.136 q -0.389,-0.108 -0.973,-0.108 a 16.407,16.407 0 0 0 -0.292,-1.028 14.037,14.037 0 0 0 -0.148,-0.437 q -0.236,-0.662 -1.252,-0.499 a 3.191,3.191 0 0 0 -0.066,0.011 q 0.175,-0.699 0.115,-1.202 a 1.898,1.898 0 0 0 -0.017,-0.116 7.939,7.939 0 0 0 -0.126,-0.573 6.201,6.201 0 0 0 -0.118,-0.404 8.849,8.849 0 0 1 -0.245,-0.879 1.373,1.373 0 0 1 -0.029,-0.209 q -0.02,-0.31 0.076,-0.716 a 4.263,4.263 0 0 1 0.051,-0.198 0.664,0.664 0 0 1 -0.481,-0.21 q -0.17,-0.169 -0.3,-0.473 a 13.311,13.311 0 0 0 -0.635,-1.282 14.548,14.548 0 0 0 -0.049,-0.086 182.172,182.172 0 0 1 0.293,-1.708 153.507,153.507 0 0 1 0.293,-1.612 25.25,25.25 0 0 1 0.472,-2.056 21.688,21.688 0 0 1 0.261,-0.874 28.333,28.333 0 0 0 0.732,-2.734 4.39,4.39 0 0 0 0.098,-0.922 q 0,-0.669 -0.201,-1.36 a 5.941,5.941 0 0 0 -0.19,-0.55 0.826,0.826 0 0 0 0.085,0.057 q 0.287,0.163 0.455,-0.114 a 0.79,0.79 0 0 0 0.046,-0.089 2.859,2.859 0 0 0 0.128,-0.354 q 0.102,-0.349 0.165,-0.818 0.098,-0.733 0.098,-1.465 a 9.092,9.092 0 0 0 -0.014,-0.505 q -0.012,-0.229 -0.037,-0.427 a 4.133,4.133 0 0 0 -0.047,-0.289 40.465,40.465 0 0 0 1.611,-5.224 q 0.635,-2.686 1.172,-5.323 a 204.963,204.963 0 0 1 1.123,-5.175 25.939,25.939 0 0 1 0.991,-3.307 22.419,22.419 0 0 1 0.572,-1.381 q 0.737,-0.134 1.589,0.031 a 6.372,6.372 0 0 1 0.803,0.213 5.423,5.423 0 0 1 0.594,0.235 q 0.798,0.375 1.018,0.888 2.539,-1.953 4.492,-4.736 1.953,-2.783 4.004,-5.42 2.051,-2.637 4.541,-4.688 a 10.505,10.505 0 0 1 3.836,-1.976 14.187,14.187 0 0 1 2.463,-0.465 60.836,60.836 0 0 0 2.474,1.757 75.9,75.9 0 0 0 1.871,1.222 12.74,12.74 0 0 1 3.955,3.955 8.599,8.599 0 0 1 0.637,0.351 q 0.38,0.232 0.682,0.479 a 10.092,10.092 0 0 0 0.516,0.394 q 0.272,0.194 0.587,0.397 a 18.282,18.282 0 0 0 0.215,0.136 z m -16.064,11.036 a 18.344,18.344 0 0 0 2.392,-2.832 q 1.131,0.357 2.207,1.185 a 10.875,10.875 0 0 1 1.358,1.256 q 1.709,1.855 2.099,4.883 a 2115.684,2115.684 0 0 1 -3.418,1.404 2494.175,2494.175 0 0 1 -3.613,1.477 31.348,31.348 0 0 1 -2.798,0.994 24.781,24.781 0 0 1 -4.331,0.91 q 0.391,-2.148 1.367,-3.76 a 18.113,18.113 0 0 1 2.198,-2.929 63.262,63.262 0 0 1 2.539,-2.588 z"
         id="3"
         vector-effect="non-scaling-stroke"
         style="fill:#000000" />
      <path
         d="m 243.833,20.02 v -1.075 q 1.757,-0.781 2.588,-1.806 0.83,-1.026 2.001,-2.491 0.839,-0.093 1.367,-0.097 a 6.168,6.168 0 0 1 0.049,0 4.382,4.382 0 0 0 0.345,-0.016 q 0.495,-0.039 1.267,-0.18 a 19.049,19.049 0 0 1 0.474,-0.787 q 0.505,-0.793 0.942,-1.263 a 5.729,5.729 0 0 1 0.511,-0.482 q 0.28,-0.235 0.628,-0.481 a 14.558,14.558 0 0 1 0.765,-0.502 8.061,8.061 0 0 0 2.066,0.694 9.379,9.379 0 0 0 0.522,0.087 q 1.416,0.195 2.49,1.27 a 3.624,3.624 0 0 0 0.114,0.619 q 0.152,0.542 0.472,0.894 0.488,0.537 1.074,0.977 a 15.442,15.442 0 0 1 1.123,0.928 2.216,2.216 0 0 1 0.518,0.717 q 0.133,0.288 0.212,0.639 a 3.819,3.819 0 0 1 0.003,0.011 q 0.216,0.054 0.357,0.018 a 0.312,0.312 0 0 0 0.18,-0.116 q 0.146,-0.195 0.537,-0.098 a 10.61,10.61 0 0 0 0.148,0.608 q 0.24,0.866 0.536,1.199 0.296,0.334 0.593,1.145 a 11.548,11.548 0 0 1 0.188,0.564 9.264,9.264 0 0 0 -0.732,2.002 2.172,2.172 0 0 1 -1.059,1.426 2.814,2.814 0 0 1 -0.162,0.088 q -0.091,0.637 0.327,0.723 a 0.628,0.628 0 0 0 0.063,0.009 q 0.417,0.042 0.549,0.404 a 0.908,0.908 0 0 1 0.037,0.133 q 0.098,0.879 -0.293,1.27 a 64.955,64.955 0 0 1 4.2,8.056 64.955,64.955 0 0 0 4.199,8.057 6.98,6.98 0 0 0 -0.025,0.58 6.304,6.304 0 0 0 0.22,1.666 16.033,16.033 0 0 0 0.733,2.1 40.232,40.232 0 0 1 0.83,2.099 13.181,13.181 0 0 1 0.586,2.149 9.934,9.934 0 0 1 0.095,1.22 q 0.016,0.839 -0.095,1.758 a 16.7,16.7 0 0 1 -0.684,3.125 q -0.488,1.514 -1.27,2.735 a 6.011,6.011 0 0 1 -0.796,1.005 4.598,4.598 0 0 1 -1.059,0.801 9.604,9.604 0 0 1 -3.32,2.735 19.099,19.099 0 0 0 -3.614,2.343 7.376,7.376 0 0 1 -2.269,0.949 8.333,8.333 0 0 1 -0.123,0.028 362.921,362.921 0 0 1 -2.686,0.586 q -0.923,0.504 -2.135,1.043 a 43.859,43.859 0 0 1 -0.404,0.178 q -1.465,0.634 -3.027,1.172 -1.563,0.537 -3.125,0.781 a 15.577,15.577 0 0 1 -1.035,0.128 q -0.857,0.075 -1.573,0.028 a 7.597,7.597 0 0 1 -0.126,-0.01 27.108,27.108 0 0 1 -3.871,1.113 23.17,23.17 0 0 1 -1.842,0.303 q -2.723,0.335 -6.334,-0.406 a 31.369,31.369 0 0 1 -0.161,-0.033 19.457,19.457 0 0 1 -2.144,0.181 q -2.302,0.063 -4.35,-0.474 a 15.599,15.599 0 0 1 -4.083,-1.694 14.262,14.262 0 0 1 -1.19,-0.796 18.429,18.429 0 0 1 -4.004,-4.102 24.607,24.607 0 0 1 -2.783,-5.029 31.888,31.888 0 0 1 -0.293,-3.248 q -0.104,-2.794 0.344,-5.298 a 21.101,21.101 0 0 1 0.339,-1.562 34.169,34.169 0 0 1 3.233,-8.156 32.096,32.096 0 0 1 0.137,-0.242 44.541,44.541 0 0 1 5.029,-7.129 666.503,666.503 0 0 0 5.304,-6.201 612.203,612.203 0 0 0 0.165,-0.195 1.909,1.909 0 0 0 0.203,0.056 q 0.294,0.063 0.516,-0.004 a 0.701,0.701 0 0 0 0.208,-0.101 q 0.321,-0.23 0.599,-0.631 a 3.658,3.658 0 0 0 0.036,-0.053 q 0.293,-0.439 0.635,-0.83 a 1.46,1.46 0 0 1 0.83,-0.488 4.984,4.984 0 0 1 1.003,-1.449 4.551,4.551 0 0 1 0.999,-0.749 5.423,5.423 0 0 0 2.1,-2.099 5.364,5.364 0 0 0 0.701,-0.204 q 0.362,-0.134 0.657,-0.314 a 3.133,3.133 0 0 0 0.106,-0.068 q 0.586,-0.391 1.123,-0.879 a 15.442,15.442 0 0 1 1.123,-0.928 3.666,3.666 0 0 1 1.07,-0.549 4.36,4.36 0 0 1 0.298,-0.085 z m 16.992,32.421 q 0.39,-1.074 1.025,-1.757 0.635,-0.684 0.733,-2.051 a 9.169,9.169 0 0 1 -0.22,-0.369 q -0.211,-0.376 -0.308,-0.652 a 1.754,1.754 0 0 1 -0.058,-0.2 q -0.074,-0.331 -0.092,-0.968 a 15.812,15.812 0 0 1 -0.006,-0.448 38.578,38.578 0 0 1 -3.711,-6.494 q -1.562,-3.467 -3.516,-6.494 a 1.776,1.776 0 0 1 -0.207,0.317 q -0.116,0.145 -0.273,0.29 a 3.778,3.778 0 0 1 -0.203,0.174 0.774,0.774 0 0 1 -0.172,0.106 q -0.415,0.182 -0.896,-0.295 a 2.202,2.202 0 0 1 -0.006,-0.006 q -0.144,0.576 -0.448,0.913 a 1.388,1.388 0 0 1 -0.236,0.21 1.587,1.587 0 0 1 -0.929,0.299 1.745,1.745 0 0 1 -0.145,-0.006 4.081,4.081 0 0 1 -0.752,-0.138 5.113,5.113 0 0 1 -0.469,-0.155 4.336,4.336 0 0 1 -0.853,-0.438 3.867,3.867 0 0 1 -0.27,-0.197 q -2.832,2.246 -5.664,4.395 a 28.271,28.271 0 0 0 -5.078,4.98 3.582,3.582 0 0 1 -0.111,0.053 q -0.294,0.135 -0.377,0.094 a 0.087,0.087 0 0 0 -0.025,-0.008 q -0.103,-0.018 -0.423,0.101 a 5.54,5.54 0 0 0 -0.138,0.053 q -0.782,1.855 -1.905,3.369 -1.123,1.514 -2.197,3.076 -1.074,1.563 -1.855,3.321 a 9.815,9.815 0 0 0 -0.66,2.146 13.346,13.346 0 0 0 -0.219,1.955 7.54,7.54 0 0 0 3.871,1.656 8.971,8.971 0 0 0 0.035,0.004 21.227,21.227 0 0 0 2.748,0.176 23.231,23.231 0 0 0 1.891,-0.078 43.897,43.897 0 0 0 4.687,-0.635 25.757,25.757 0 0 1 2.342,-0.343 19.665,19.665 0 0 1 1.906,-0.096 34.247,34.247 0 0 0 3.365,-0.976 q 1.764,-0.617 3.245,-1.387 a 20.411,20.411 0 0 0 0.421,-0.225 q 2.93,-1.611 6.153,-3.272 z"
         id="4"
         vector-effect="non-scaling-stroke"
         style="fill:#000000" />
      <path
         d="m 306.723,45.41 -0.488,1.465 a 5.497,5.497 0 0 0 -1.079,1.263 6.249,6.249 0 0 0 -0.093,0.153 79.957,79.957 0 0 0 -0.976,1.709 20.344,20.344 0 0 1 -1.075,2.051 7.521,7.521 0 0 1 -1.465,1.758 19.668,19.668 0 0 1 -0.305,0.853 q -0.33,0.857 -0.66,1.423 a 5.81,5.81 0 0 1 -0.011,0.019 6.341,6.341 0 0 1 -0.405,0.599 q -0.226,0.3 -0.516,0.626 a 15.696,15.696 0 0 1 -0.642,0.679 16.746,16.746 0 0 1 -1.228,3.286 q -1.216,2.485 -3.361,5.21 a 4.727,4.727 0 0 1 -0.497,1.631 5.385,5.385 0 0 1 -0.041,0.078 25.931,25.931 0 0 1 -0.927,1.611 10.296,10.296 0 0 0 -0.269,0.426 12.16,12.16 0 0 0 -0.122,0.209 21.52,21.52 0 0 0 -0.091,0.162 q -0.129,0.229 -0.202,0.375 l -0.195,0.977 a 8.08,8.08 0 0 1 -0.709,0.971 6.916,6.916 0 0 1 -0.365,0.396 l -1.075,1.074 q -0.162,0.244 -0.527,0.622 a 12.133,12.133 0 0 1 -0.156,0.159 l -1.465,0.586 a 12.395,12.395 0 0 1 -3.721,-1.068 q -3.506,-1.692 -4.74,-5.696 a 13.047,13.047 0 0 1 -0.23,-0.853 l 0.097,-0.977 a 9.412,9.412 0 0 0 0.323,-0.958 10.276,10.276 0 0 0 0.019,-0.067 20.186,20.186 0 0 1 0.224,-0.761 23.566,23.566 0 0 1 0.118,-0.362 30.067,30.067 0 0 1 0.928,-2.734 q 0.537,-1.368 1.611,-2.442 a 6.583,6.583 0 0 1 0.128,-0.393 q 0.238,-0.669 0.751,-1.804 0.671,-1.486 2.284,-4.432 a 182.99,182.99 0 0 1 0.06,-0.109 890.263,890.263 0 0 0 0.646,-1.111 q 0.63,-1.082 1.104,-1.905 a 260.848,260.848 0 0 0 0.398,-0.695 q 0.781,-1.367 1.269,-2.148 a 13.915,13.915 0 0 0 -2.343,-2.832 63.386,63.386 0 0 1 -1.454,-2.976 52.57,52.57 0 0 1 -0.744,-1.712 46.403,46.403 0 0 1 -0.634,-1.616 q -0.476,-1.289 -0.782,-2.388 a 21.402,21.402 0 0 0 -0.087,-0.897 q -0.052,-0.439 -0.119,-0.818 a 10.333,10.333 0 0 0 -0.087,-0.433 82.76,82.76 0 0 1 -0.195,-0.904 96.273,96.273 0 0 1 -0.195,-0.952 25.499,25.499 0 0 1 -0.488,-2.148 12.37,12.37 0 0 1 -0.193,-1.955 13.847,13.847 0 0 1 -0.003,-0.291 3.747,3.747 0 0 1 -0.352,-0.598 2.744,2.744 0 0 1 -0.234,-0.769 L 281.333,25 a 2.087,2.087 0 0 0 0.137,-0.48 q 0.093,-0.562 -0.04,-1.327 a 32.076,32.076 0 0 0 -0.452,-2.148 34.997,34.997 0 0 0 -0.036,-0.147 239.981,239.981 0 0 0 -0.208,-1.025 316.071,316.071 0 0 0 -0.231,-1.123 8.188,8.188 0 0 1 -0.175,-1.674 8.06,8.06 0 0 1 0.028,-0.67 q 0.098,-1.172 0.635,-2.197 0.497,-0.949 1.621,-1.689 a 7.237,7.237 0 0 1 0.185,-0.118 l 1.661,-0.097 a 97.594,97.594 0 0 0 1.5,0.817 88.044,88.044 0 0 0 0.209,0.11 25.931,25.931 0 0 1 1.611,0.928 63.24,63.24 0 0 1 1.556,0.733 56.25,56.25 0 0 1 0.495,0.244 q 0.976,0.488 2.051,1.269 l 0.683,1.367 1.27,1.075 v 1.074 q 0.097,0.39 0.097,1.074 a 6.404,6.404 0 0 0 0.018,0.492 q 0.059,0.76 0.317,1.022 a 0.504,0.504 0 0 0 0.056,0.049 l 0.391,1.171 a 11.42,11.42 0 0 0 0.164,1.969 10.116,10.116 0 0 0 0.129,0.619 q 0.292,1.221 0.585,2.295 a 105.968,105.968 0 0 1 0.44,1.667 119.626,119.626 0 0 1 0.146,0.579 q 0.278,1.11 0.117,2.395 a 8.245,8.245 0 0 1 -0.019,0.144 4.228,4.228 0 0 0 0.552,-0.328 3.264,3.264 0 0 0 0.425,-0.355 1.876,1.876 0 0 1 0.171,-0.152 q 0.109,-0.086 0.219,-0.141 0.183,-0.092 0.366,-0.269 a 2.16,2.16 0 0 0 0.025,-0.024 l 5.762,-7.813 -0.196,-0.976 2.051,-1.953 a 63.653,63.653 0 0 1 1.121,-1.095 54.897,54.897 0 0 1 0.393,-0.37 7.532,7.532 0 0 0 0.961,-1.08 6.699,6.699 0 0 0 0.259,-0.385 l 1.075,-0.781 a 13.23,13.23 0 0 1 8.529,-5.978 16.373,16.373 0 0 1 0.357,-0.077 l 1.368,-0.195 0.39,1.269 a 3.498,3.498 0 0 0 0.624,1.056 q 0.396,0.472 0.987,0.897 a 29.321,29.321 0 0 0 2.588,1.661 l 0.879,0.586 a 8.639,8.639 0 0 1 0.214,0.457 q 0.275,0.641 0.275,1.007 a 4.204,4.204 0 0 1 -0.025,0.464 3.142,3.142 0 0 1 -0.073,0.415 l 0.391,0.977 q -0.496,1.488 -1.13,2.464 a 5.321,5.321 0 0 1 -0.775,0.954 40.539,40.539 0 0 1 -1.384,1.266 34.196,34.196 0 0 1 -0.813,0.687 198.541,198.541 0 0 1 -0.842,0.745 148.655,148.655 0 0 1 -0.769,0.671 q -0.733,0.635 -1.123,1.611 l -0.684,0.782 a 6.473,6.473 0 0 0 -1.402,1.057 4.906,4.906 0 0 0 -1.235,2.068 l -0.293,1.171 h -1.172 a 0.126,0.126 0 0 0 -0.052,0.016 q -0.113,0.055 -0.369,0.308 a 6.546,6.546 0 0 0 -0.018,0.018 q -0.297,0.297 -0.851,1.367 a 26.525,26.525 0 0 0 -0.174,0.342 31.506,31.506 0 0 1 -0.281,0.395 q -0.467,0.646 -0.696,0.875 l -0.488,0.488 a 4.949,4.949 0 0 1 -0.187,0.592 4.407,4.407 0 0 1 -0.057,0.14 26.952,26.952 0 0 0 -0.117,0.277 q -0.052,0.124 -0.108,0.263 a 52.971,52.971 0 0 0 -0.117,0.29 21.132,21.132 0 0 0 -0.542,0.561 q -0.748,0.806 -0.991,1.284 a 1.735,1.735 0 0 0 -0.03,0.06 42.675,42.675 0 0 1 -0.306,0.649 q -0.165,0.341 -0.352,0.717 a 68.544,68.544 0 0 1 -0.025,0.05 64.143,64.143 0 0 0 -0.559,1.144 57.052,57.052 0 0 0 -0.174,0.369 4.205,4.205 0 0 1 -0.381,0.648 q -0.207,0.292 -0.48,0.592 a 8.134,8.134 0 0 1 -0.262,0.274 z"
         id="5"
         vector-effect="non-scaling-stroke"
         style="fill:#000000" />
      <path
         d="m 396.469,60.156 -1.367,-2.539 -0.781,-1.562 -1.172,1.074 -1.758,1.562 -0.976,0.977 q -2.539,2.344 -5.127,4.639 a 41.321,41.321 0 0 1 -5.469,4.101 q -2.881,1.807 -6.055,2.93 -3.174,1.123 -6.884,1.221 l -2.149,-1.075 q -1.421,-0.747 -2.498,-1.38 a 36.257,36.257 0 0 1 -0.627,-0.377 10.666,10.666 0 0 1 -0.919,-0.641 q -0.921,-0.711 -2.011,-1.801 a 21.936,21.936 0 0 1 -0.503,-0.958 17.122,17.122 0 0 1 -0.327,-0.702 33.681,33.681 0 0 0 -0.732,-1.563 54.941,54.941 0 0 1 -0.865,-1.634 q -0.508,-1.002 -0.893,-1.881 a 43.323,43.323 0 0 1 -0.684,-1.66 57.883,57.883 0 0 1 -0.683,-1.856 55.63,55.63 0 0 0 0.165,-0.802 q 0.245,-1.237 0.623,-3.331 a 434.659,434.659 0 0 0 0.091,-0.505 199.213,199.213 0 0 1 0.647,-3.431 262.271,262.271 0 0 1 0.769,-3.747 383.299,383.299 0 0 1 1.758,-7.861 99.427,99.427 0 0 1 0.821,-3.265 q 0.4,-1.479 0.809,-2.776 a 54.909,54.909 0 0 1 0.274,-0.844 120.934,120.934 0 0 1 1.194,-3.289 145.843,145.843 0 0 1 0.808,-2.082 48.23,48.23 0 0 1 1.636,-3.687 40.959,40.959 0 0 1 0.805,-1.538 23.893,23.893 0 0 1 1.47,-2.349 18.623,18.623 0 0 1 1.411,-1.753 q 1.281,-1.401 2.693,-1.85 a 4.513,4.513 0 0 1 0.627,-0.151 3.825,3.825 0 0 0 0.413,0.49 q 0.314,0.312 0.662,0.486 a 16.931,16.931 0 0 0 0.544,0.261 q 0.261,0.119 0.498,0.215 a 10.241,10.241 0 0 0 0.032,0.012 32.965,32.965 0 0 0 1.271,1.703 q 0.625,0.78 1.239,1.434 a 19.886,19.886 0 0 0 0.175,0.184 26.116,26.116 0 0 0 1.623,1.538 33.165,33.165 0 0 0 1.454,1.196 q -0.489,2.441 -1.416,5.42 -0.928,2.978 -1.954,5.957 -1.025,2.979 -2.001,5.811 -0.748,2.168 -1.267,3.878 a 64.878,64.878 0 0 0 -0.296,1.004 22.816,22.816 0 0 0 -0.597,1.992 29.47,29.47 0 0 0 -0.38,1.719 q -0.878,3.614 -1.66,9.864 1.172,-0.293 2.539,-1.27 a 40.728,40.728 0 0 0 2.637,-2.051 34.291,34.291 0 0 0 2.152,-1.879 39.814,39.814 0 0 0 0.778,-0.757 56.661,56.661 0 0 0 1.511,-1.568 q 0.675,-0.729 1.245,-1.405 a 31.94,31.94 0 0 0 0.369,-0.445 45.834,45.834 0 0 0 2.392,-3.223 59.62,59.62 0 0 0 1.136,-1.746 74.225,74.225 0 0 0 1.159,-1.916 257.01,257.01 0 0 1 0.948,-1.605 q 0.423,-0.711 0.894,-1.494 a 481.182,481.182 0 0 1 0.99,-1.638 295.935,295.935 0 0 0 1.502,-2.429 356.923,356.923 0 0 0 1.574,-2.6 180.258,180.258 0 0 1 3.173,-5.098 166.338,166.338 0 0 1 0.05,-0.078 q 1.611,-2.49 3.174,-4.541 a 36.719,36.719 0 0 1 1.085,-1.36 q 0.525,-0.625 1.012,-1.136 a 16.182,16.182 0 0 1 0.735,-0.726 8.922,8.922 0 0 0 1.01,1.06 11.818,11.818 0 0 0 0.992,0.795 10.401,10.401 0 0 0 2.588,1.367 49.315,49.315 0 0 0 0.574,0.843 39.326,39.326 0 0 0 0.549,0.769 30.845,30.845 0 0 0 0.525,0.696 23.742,23.742 0 0 0 0.5,0.622 152.416,152.416 0 0 0 0.574,0.855 129.611,129.611 0 0 0 0.549,0.805 42.783,42.783 0 0 1 1.026,1.563 q -0.098,0.683 -0.293,1.758 a 208.147,208.147 0 0 1 -0.208,1.123 268.081,268.081 0 0 1 -0.232,1.22 q -0.244,1.27 -0.537,2.588 a 105.904,105.904 0 0 1 -0.293,1.282 89.592,89.592 0 0 1 -0.293,1.208 l -1.172,5.567 a 78.101,78.101 0 0 0 -0.18,0.879 q -0.189,0.953 -0.298,1.649 a 20.837,20.837 0 0 0 -0.059,0.402 41.031,41.031 0 0 0 -0.067,0.515 q -0.09,0.73 -0.127,1.274 a 14.321,14.321 0 0 0 -10e-4,0.017 q -0.044,0.662 -0.048,1.762 a 62.041,62.041 0 0 0 -0.001,0.24 6.539,6.539 0 0 0 -0.032,0.651 6.624,6.624 0 0 0 0.13,1.302 9.708,9.708 0 0 0 0.198,1.136 12.04,12.04 0 0 0 0.192,0.72 q 0.293,0.976 0.782,1.758 l 3.906,-3.028 a 12.474,12.474 0 0 0 1.574,-1.447 q 0.704,-0.762 1.379,-1.706 a 21.407,21.407 0 0 0 0.221,-0.314 35.353,35.353 0 0 0 1.58,-2.527 46.661,46.661 0 0 0 1.349,-2.551 83.787,83.787 0 0 0 1.751,-3.811 102.792,102.792 0 0 0 1.033,-2.488 775.246,775.246 0 0 0 2.734,-6.933 q 2.051,-5.176 4.15,-10.059 a 61.873,61.873 0 0 1 1.298,-2.832 q 1.367,-2.782 2.668,-4.569 a 18.008,18.008 0 0 1 0.087,-0.118 34.253,34.253 0 0 1 2.189,1.51 26.462,26.462 0 0 1 1.571,1.273 17.672,17.672 0 0 1 2.709,2.973 16.544,16.544 0 0 1 0.074,0.103 14.204,14.204 0 0 1 1.458,2.639 16.956,16.956 0 0 1 0.446,1.17 q 0.733,2.148 1.026,5.078 -1.758,3.418 -3.369,7.031 -1.612,3.613 -3.077,7.227 a 387.922,387.922 0 0 1 -4.052,9.375 85.603,85.603 0 0 1 -4.639,8.935 53.275,53.275 0 0 1 -5.664,7.813 29.857,29.857 0 0 1 -7.227,6.006 10.015,10.015 0 0 0 -0.764,-0.179 q -0.376,-0.071 -0.707,-0.098 a 4.756,4.756 0 0 0 -0.384,-0.016 4.604,4.604 0 0 0 -1.316,0.18 3.751,3.751 0 0 0 -1.321,0.698 12.659,12.659 0 0 1 -5.42,-4.589 q -2.002,-3.028 -3.955,-6.739 l -0.586,-1.172 a 17.36,17.36 0 0 0 -0.357,-0.677 14.055,14.055 0 0 0 -0.229,-0.397 z"
         id="7"
         vector-effect="non-scaling-stroke"
         style="fill:#000000" />
      <path
         d="m 454.917,70.215 a 4.086,4.086 0 0 0 0.118,-0.26 q 0.675,-1.623 0.223,-4.33 a 41.058,41.058 0 0 1 -0.687,-7.43 39.266,39.266 0 0 1 0.053,-2.043 60.473,60.473 0 0 1 1.22,-9.326 86.051,86.051 0 0 1 2.491,-9.228 q 1.513,-4.59 3.271,-9.278 a 1.745,1.745 0 0 1 -0.828,-0.647 2.48,2.48 0 0 1 -0.295,-0.573 7.044,7.044 0 0 1 -0.237,-0.786 8.565,8.565 0 0 1 -0.202,-1.265 26.485,26.485 0 0 1 -0.098,-2.295 v -1.953 a 4.374,4.374 0 0 1 -0.559,-0.332 3.27,3.27 0 0 1 -1.101,-1.28 9.684,9.684 0 0 1 -0.733,-2.197 l -0.488,-2.344 a 5.052,5.052 0 0 0 -1.025,-2.148 8.427,8.427 0 0 0 -0.271,0.004 q -0.578,0.019 -1.084,0.118 a 4.761,4.761 0 0 0 -1.136,0.366 11.605,11.605 0 0 0 -0.377,0.189 10.165,10.165 0 0 0 -1.478,0.934 14.983,14.983 0 0 0 -0.052,0.04 16.228,16.228 0 0 0 -1.559,1.376 10.891,10.891 0 0 1 -1.661,1.368 q 0.196,1.66 -0.537,3.173 a 48.305,48.305 0 0 1 -0.33,0.67 q -0.516,1.027 -0.89,1.625 -0.383,0.766 -0.376,1.351 a 1.566,1.566 0 0 0 0.034,0.309 2.07,2.07 0 0 1 0.03,0.177 q 0.08,0.641 -0.177,1.581 -0.097,0.489 -0.586,0.635 a 1.486,1.486 0 0 0 -0.009,0.003 q -0.139,0.043 -0.246,0.106 a 0.674,0.674 0 0 0 -0.33,0.428 1.848,1.848 0 0 0 -0.072,0.51 q 0,0.236 0.058,0.483 a 2.744,2.744 0 0 0 0.16,0.472 2.553,2.553 0 0 1 0.218,1.034 q 0,0.307 -0.072,0.626 a 53.773,53.773 0 0 1 -2.099,7.715 q -1.318,3.711 -2.002,7.812 a 27.407,27.407 0 0 0 -0.089,0.742 31.216,31.216 0 0 0 -0.155,2.335 3356.923,3356.923 0 0 1 -0.098,3.173 47.253,47.253 0 0 1 -0.195,3.077 10.879,10.879 0 0 1 -0.194,1.259 8.253,8.253 0 0 1 -0.441,1.426 201.289,201.289 0 0 0 0.113,0.477 q 0.173,0.729 0.373,1.545 a 354.476,354.476 0 0 0 0.442,1.787 79.711,79.711 0 0 0 1.22,4.345 q 0.684,2.198 1.465,4.249 a 21.408,21.408 0 0 0 0.224,0.563 q 0.341,0.824 0.717,1.527 a 12.094,12.094 0 0 0 0.817,1.327 q 1.318,0.22 2.747,0.22 a 19.311,19.311 0 0 0 0.964,-0.024 9.345,9.345 0 0 0 1.064,-0.113 7.516,7.516 0 0 0 2.403,-0.815 5.401,5.401 0 0 0 1.136,-0.83 5.938,5.938 0 0 0 1.208,-1.66 z"
         id="8"
         vector-effect="non-scaling-stroke"
         style="fill:#000000" />
      <path
         d="m 494.614,70.801 -2.246,0.586 a 124.358,124.358 0 0 1 -2.857,0.879 155.942,155.942 0 0 1 -3.1,0.879 q -3.223,0.878 -6.446,0.878 a 15.821,15.821 0 0 1 -3.114,-0.288 q -1.885,-0.379 -3.353,-1.254 a 8.858,8.858 0 0 1 -1.247,-0.899 11.534,11.534 0 0 0 -0.238,-0.494 q -0.348,-0.678 -0.641,-0.971 a 7.247,7.247 0 0 1 -0.537,-0.83 2.205,2.205 0 0 1 -0.157,-0.36 q -0.123,-0.36 -0.185,-0.861 a 10.457,10.457 0 0 1 -1.712,-2.811 11.967,11.967 0 0 1 -0.144,-0.362 16.313,16.313 0 0 1 -0.927,-3.711 18.85,18.85 0 0 1 -0.153,-2.4 19.488,19.488 0 0 1 0.055,-1.458 19.521,19.521 0 0 1 0.49,-3.157 17.669,17.669 0 0 1 0.145,-0.554 2.553,2.553 0 0 0 0.191,-0.506 2.2,2.2 0 0 0 0.053,-0.275 10.195,10.195 0 0 1 0.056,-0.388 q 0.038,-0.231 0.09,-0.491 a 67.57,67.57 0 0 1 0.83,-3.027 9.214,9.214 0 0 1 0.603,-1.525 7.459,7.459 0 0 1 0.618,-1.014 2.259,2.259 0 0 1 -0.195,-0.928 q 0,-0.488 0.195,-1.025 a 14.582,14.582 0 0 1 0.527,-1.267 12.031,12.031 0 0 1 0.352,-0.687 1086.21,1086.21 0 0 0 0.964,-2.625 q 0.751,-2.056 1.331,-3.673 a 238.258,238.258 0 0 1 1.904,-5.127 282.933,282.933 0 0 0 3.125,-8.692 92.739,92.739 0 0 0 1.717,-5.638 110.934,110.934 0 0 0 0.92,-3.639 33.364,33.364 0 0 1 0.366,-0.226 q 0.513,-0.311 0.806,-0.458 a 21.591,21.591 0 0 1 0.281,-0.091 q 0.376,-0.12 0.656,-0.192 a 7.114,7.114 0 0 1 0.039,-0.01 30.122,30.122 0 0 0 1.777,0.814 q 1.08,0.454 2.325,0.895 a 19.477,19.477 0 0 0 1.388,0.438 q 0.7,0.19 1.312,0.288 a 7.671,7.671 0 0 0 1.206,0.104 12.989,12.989 0 0 1 0.314,0.202 q 0.51,0.34 0.663,0.531 a 5.712,5.712 0 0 0 0.244,0.286 4.741,4.741 0 0 0 0.146,0.153 19.564,19.564 0 0 1 1.5,2.014 17.365,17.365 0 0 1 0.356,0.574 3.922,3.922 0 0 1 0.459,1.218 q 0.167,0.81 0.078,1.818 a 9.222,9.222 0 0 1 -0.049,0.431 7.138,7.138 0 0 1 -0.209,0.299 q -0.432,0.58 -0.67,0.58 -0.488,1.953 -1.025,3.32 a 96.735,96.735 0 0 1 -1.123,2.735 56.897,56.897 0 0 0 -1.27,2.929 q -0.586,1.465 -0.976,3.614 a 4.972,4.972 0 0 0 -0.24,0.324 q -0.11,0.163 -0.189,0.314 a 2.166,2.166 0 0 0 -0.108,0.24 q -0.147,0.391 -0.342,0.879 a 22.725,22.725 0 0 1 -0.263,0.63 26.976,26.976 0 0 1 -0.177,0.396 2.498,2.498 0 0 1 -0.698,0.9 2.906,2.906 0 0 1 -0.034,0.027 23.856,23.856 0 0 1 -0.242,1.631 q -0.143,0.768 -0.328,1.417 a 10.255,10.255 0 0 1 -0.358,1.054 127.855,127.855 0 0 1 -1.318,3.125 79.725,79.725 0 0 0 -2.1,5.664 21.86,21.86 0 0 0 -0.779,3.23 29.341,29.341 0 0 0 -0.344,3.215 2.89,2.89 0 0 1 0.469,-0.145 2.194,2.194 0 0 1 0.459,-0.05 h 0.83 a 6.456,6.456 0 0 1 0.762,0.048 q 0.371,0.045 0.781,0.129 a 12.394,12.394 0 0 1 0.508,0.116 q 2.929,-1.562 6.396,-1.855 3.467,-0.293 6.885,-0.391 h 2.734 a 16.858,16.858 0 0 0 1.555,-0.069 13.653,13.653 0 0 0 0.984,-0.126 q 0.879,0.488 1.123,0.537 a 1.868,1.868 0 0 0 0.157,0.023 q 0.225,0.026 0.576,0.026 a 8.118,8.118 0 0 1 0.485,0.013 q 0.25,0.015 0.468,0.047 a 4.131,4.131 0 0 1 0.219,0.037 q 0.953,0.874 1.841,1.36 a 6.119,6.119 0 0 0 0.405,0.203 23.001,23.001 0 0 0 2.246,0.879 40.232,40.232 0 0 1 2.1,0.83 8.241,8.241 0 0 1 1.386,0.766 9.865,9.865 0 0 1 0.616,0.454 l 0.683,4.2 a 7.772,7.772 0 0 1 0.203,0.272 q 0.465,0.655 0.383,0.9 a 2.49,2.49 0 0 1 -0.036,0.439 q -0.044,0.241 -0.139,0.431 a 1.158,1.158 0 0 1 -0.216,0.301 l 0.196,1.075 A 12.734,12.734 0 0 0 516.986,69 q -0.607,0.156 -0.989,0.336 a 2.093,2.093 0 0 0 -0.338,0.195 q -0.537,0.391 -1.026,0.879 a 23.402,23.402 0 0 1 -0.363,0.043 q -0.338,0.037 -0.565,0.049 a 3.705,3.705 0 0 1 -0.195,0.006 h -0.634 a 9.703,9.703 0 0 0 -1.108,0.068 q -0.558,0.065 -1.188,0.19 a 21.191,21.191 0 0 0 -1.025,0.23 q -2.636,-0.879 -5.468,-0.879 a 26.175,26.175 0 0 0 -1.667,0.055 29.975,29.975 0 0 0 -0.58,0.043 l -2.343,0.195 a 28.253,28.253 0 0 1 -2.393,0.293 q -1.221,0.098 -2.49,0.098 z"
         id="9"
         vector-effect="non-scaling-stroke"
         style="fill:#000000" />
      <path
         d="m 547.934,70.801 -2.246,0.586 a 124.358,124.358 0 0 1 -2.856,0.879 155.942,155.942 0 0 1 -3.101,0.879 q -3.223,0.878 -6.445,0.878 a 15.821,15.821 0 0 1 -3.115,-0.288 q -1.885,-0.379 -3.352,-1.254 a 8.858,8.858 0 0 1 -1.248,-0.899 11.534,11.534 0 0 0 -0.238,-0.494 q -0.348,-0.678 -0.641,-0.971 a 7.247,7.247 0 0 1 -0.537,-0.83 2.205,2.205 0 0 1 -0.157,-0.36 q -0.122,-0.36 -0.185,-0.861 a 10.457,10.457 0 0 1 -1.711,-2.811 11.967,11.967 0 0 1 -0.144,-0.362 16.313,16.313 0 0 1 -0.928,-3.711 18.85,18.85 0 0 1 -0.153,-2.4 19.488,19.488 0 0 1 0.055,-1.458 19.521,19.521 0 0 1 0.491,-3.157 17.669,17.669 0 0 1 0.144,-0.554 2.553,2.553 0 0 0 0.192,-0.506 2.2,2.2 0 0 0 0.052,-0.275 10.195,10.195 0 0 1 0.057,-0.388 q 0.038,-0.231 0.09,-0.491 a 67.57,67.57 0 0 1 0.83,-3.027 9.214,9.214 0 0 1 0.602,-1.525 7.459,7.459 0 0 1 0.618,-1.014 2.259,2.259 0 0 1 -0.195,-0.928 q 0,-0.488 0.195,-1.025 a 14.582,14.582 0 0 1 0.527,-1.267 12.031,12.031 0 0 1 0.352,-0.687 1086.21,1086.21 0 0 0 0.964,-2.625 q 0.751,-2.056 1.331,-3.673 a 238.258,238.258 0 0 1 1.905,-5.127 282.933,282.933 0 0 0 3.125,-8.692 92.739,92.739 0 0 0 1.716,-5.638 110.934,110.934 0 0 0 0.92,-3.639 33.364,33.364 0 0 1 0.366,-0.226 q 0.513,-0.311 0.806,-0.458 a 21.591,21.591 0 0 1 0.281,-0.091 q 0.376,-0.12 0.656,-0.192 a 7.114,7.114 0 0 1 0.04,-0.01 30.122,30.122 0 0 0 1.776,0.814 q 1.08,0.454 2.325,0.895 a 19.477,19.477 0 0 0 1.389,0.438 q 0.699,0.19 1.312,0.288 a 7.671,7.671 0 0 0 1.206,0.104 12.989,12.989 0 0 1 0.313,0.202 q 0.51,0.34 0.663,0.531 a 5.712,5.712 0 0 0 0.244,0.286 4.741,4.741 0 0 0 0.147,0.153 19.564,19.564 0 0 1 1.499,2.014 17.365,17.365 0 0 1 0.356,0.574 3.922,3.922 0 0 1 0.46,1.218 q 0.167,0.81 0.077,1.818 a 9.222,9.222 0 0 1 -0.049,0.431 7.138,7.138 0 0 1 -0.209,0.299 q -0.431,0.58 -0.669,0.58 -0.489,1.953 -1.026,3.32 a 96.735,96.735 0 0 1 -1.123,2.735 56.897,56.897 0 0 0 -1.269,2.929 q -0.586,1.465 -0.977,3.614 a 4.972,4.972 0 0 0 -0.24,0.324 q -0.11,0.163 -0.188,0.314 a 2.166,2.166 0 0 0 -0.109,0.24 q -0.147,0.391 -0.342,0.879 a 22.725,22.725 0 0 1 -0.263,0.63 26.976,26.976 0 0 1 -0.176,0.396 2.498,2.498 0 0 1 -0.699,0.9 2.906,2.906 0 0 1 -0.034,0.027 23.856,23.856 0 0 1 -0.242,1.631 q -0.143,0.768 -0.327,1.417 a 10.255,10.255 0 0 1 -0.359,1.054 127.855,127.855 0 0 1 -1.318,3.125 79.725,79.725 0 0 0 -2.099,5.664 21.86,21.86 0 0 0 -0.779,3.23 29.341,29.341 0 0 0 -0.345,3.215 2.89,2.89 0 0 1 0.469,-0.145 2.194,2.194 0 0 1 0.459,-0.05 h 0.83 a 6.456,6.456 0 0 1 0.763,0.048 q 0.37,0.045 0.781,0.129 a 12.394,12.394 0 0 1 0.507,0.116 q 2.93,-1.562 6.397,-1.855 3.466,-0.293 6.884,-0.391 h 2.735 a 16.858,16.858 0 0 0 1.554,-0.069 13.653,13.653 0 0 0 0.985,-0.126 q 0.879,0.488 1.123,0.537 a 1.868,1.868 0 0 0 0.156,0.023 q 0.225,0.026 0.576,0.026 a 8.118,8.118 0 0 1 0.485,0.013 q 0.251,0.015 0.468,0.047 a 4.131,4.131 0 0 1 0.219,0.037 q 0.953,0.874 1.842,1.36 a 6.119,6.119 0 0 0 0.404,0.203 23.001,23.001 0 0 0 2.246,0.879 40.232,40.232 0 0 1 2.1,0.83 8.241,8.241 0 0 1 1.387,0.766 9.865,9.865 0 0 1 0.615,0.454 l 0.683,4.2 a 7.772,7.772 0 0 1 0.204,0.272 q 0.464,0.655 0.382,0.9 a 2.49,2.49 0 0 1 -0.036,0.439 q -0.043,0.241 -0.138,0.431 a 1.158,1.158 0 0 1 -0.216,0.301 l 0.195,1.075 A 12.734,12.734 0 0 0 570.307,69 q -0.607,0.156 -0.989,0.336 a 2.093,2.093 0 0 0 -0.339,0.195 q -0.537,0.391 -1.025,0.879 a 23.402,23.402 0 0 1 -0.363,0.043 q -0.339,0.037 -0.565,0.049 a 3.705,3.705 0 0 1 -0.195,0.006 h -0.635 a 9.703,9.703 0 0 0 -1.108,0.068 q -0.558,0.065 -1.188,0.19 a 21.191,21.191 0 0 0 -1.024,0.23 q -2.637,-0.879 -5.469,-0.879 a 26.175,26.175 0 0 0 -1.666,0.055 29.975,29.975 0 0 0 -0.58,0.043 l -2.344,0.195 a 28.253,28.253 0 0 1 -2.393,0.293 q -1.22,0.098 -2.49,0.098 z"
         id="10"
         vector-effect="non-scaling-stroke"
         style="fill:#000000" />
      <path
         d="m 664.493,57.315 a 1.188,1.188 0 0 0 -0.641,-0.772 q 0.42,-0.42 0.407,-1.02 a 1.824,1.824 0 0 0 -0.016,-0.201 5.452,5.452 0 0 0 -0.04,-0.25 q -0.115,-0.637 -0.4,-1.41 -0.341,-0.928 -0.83,-1.953 a 15.755,15.755 0 0 1 -0.286,-0.636 13.377,13.377 0 0 1 -0.495,-1.366 6.005,6.005 0 0 0 -0.082,-0.054 5.375,5.375 0 0 0 -0.504,-0.288 2.18,2.18 0 0 1 -0.222,-0.127 1.675,1.675 0 0 1 -0.266,-0.215 9.434,9.434 0 0 0 -1.953,-2.539 30.899,30.899 0 0 0 -2.491,-2.05 178.683,178.683 0 0 1 -2.587,-1.954 q -1.27,-0.976 -2.247,-2.246 a 30.131,30.131 0 0 1 3.272,-3.515 33.727,33.727 0 0 0 3.32,-3.516 q 1.514,-1.855 2.539,-4.053 a 9.629,9.629 0 0 0 0.738,-2.364 q 0.24,-1.323 0.19,-2.86 -0.195,-0.293 -0.586,-0.391 -0.356,-0.089 -0.306,-0.503 a 1.086,1.086 0 0 1 0.013,-0.083 4.864,4.864 0 0 0 -0.01,-0.322 3.947,3.947 0 0 0 -0.625,-1.924 8.405,8.405 0 0 0 -0.205,-0.301 9.162,9.162 0 0 0 -1.357,-1.506 32.126,32.126 0 0 0 -1.953,-1.611 10.651,10.651 0 0 1 -0.721,-0.6 8.504,8.504 0 0 1 -0.988,-1.06 1.939,1.939 0 0 1 -0.774,-0.163 2.549,2.549 0 0 1 -0.545,-0.325 28.831,28.831 0 0 1 -0.483,-0.38 34.397,34.397 0 0 1 -0.835,-0.695 9.665,9.665 0 0 0 -0.173,-0.145 10.626,10.626 0 0 0 -1.341,-0.929 1.234,1.234 0 0 0 -0.636,-0.174 q -0.44,0 -0.953,0.292 a 3.935,3.935 0 0 0 -0.413,0.273 q -0.612,-0.446 -1.177,-0.685 a 3.534,3.534 0 0 0 -0.825,-0.243 2.875,2.875 0 0 1 -0.61,-0.162 1.969,1.969 0 0 1 -0.806,-0.57 2.669,2.669 0 0 1 -0.085,0.041 q -0.301,0.137 -0.662,0.214 a 4.497,4.497 0 0 1 -0.669,0.087 26.897,26.897 0 0 1 -0.051,0.003 29.189,29.189 0 0 1 -1.658,0.045 31.614,31.614 0 0 0 -0.054,0 29.037,29.037 0 0 0 -1.655,0.049 5.222,5.222 0 0 0 -0.102,0.007 q -0.764,0.06 -1.314,0.335 -4.394,-0.293 -8.203,0.586 -3.808,0.879 -7.617,1.562 l -4.883,1.221 a 30.241,30.241 0 0 0 -0.316,0.081 27.476,27.476 0 0 0 -4.469,1.579 18.671,18.671 0 0 0 -0.287,0.135 16.649,16.649 0 0 0 -3.717,2.404 9.39,9.39 0 0 0 -2.636,3.76 q 1.367,3.418 3.613,5.957 a 13.852,13.852 0 0 0 1.682,1.607 15.41,15.41 0 0 0 3.982,2.299 q 0.879,-0.293 2.002,-0.244 a 3.014,3.014 0 0 0 0.131,0.003 q 0.016,0 0.032,0 a 2.414,2.414 0 0 0 1.741,-0.735 7.547,7.547 0 0 1 0.078,-0.452 q 0.099,-0.479 0.253,-0.883 a 3.888,3.888 0 0 1 0.45,-0.862 1.907,1.907 0 0 1 0.453,-0.455 q 0.321,-0.229 0.758,-0.351 a 3.789,3.789 0 0 1 0.743,-0.122 10.307,10.307 0 0 1 0.003,0.015 q 0.386,1.65 0.094,2.866 -0.293,1.22 -0.732,2.343 a 62.602,62.602 0 0 0 -0.83,2.247 5.39,5.39 0 0 0 -0.225,0.89 q -0.088,0.536 -0.088,1.134 a 8.615,8.615 0 0 0 0.02,0.563 q -0.879,2.344 -1.221,3.907 a 86.175,86.175 0 0 0 -0.317,1.513 69.74,69.74 0 0 0 -0.269,1.416 16.961,16.961 0 0 1 -0.1,0.515 18.933,18.933 0 0 1 -0.632,2.269 36.677,36.677 0 0 0 -0.009,0.025 q -0.365,1.059 -0.944,2.95 a 252.203,252.203 0 0 0 -0.415,1.37 3.597,3.597 0 0 0 -0.024,0.019 2.974,2.974 0 0 0 -1.05,1.446 q -0.293,0.879 -0.488,1.758 a 14.732,14.732 0 0 1 -0.488,1.709 q -0.293,0.83 -0.977,1.416 l 0.391,0.976 a 3.569,3.569 0 0 1 0.047,0.125 q 0.082,0.229 0.144,0.496 a 6.471,6.471 0 0 1 0.102,0.551 q -0.806,0.147 -1.062,0.898 a 2.304,2.304 0 0 0 -0.11,0.567 26.176,26.176 0 0 1 -0.104,1.074 20.793,20.793 0 0 1 -0.189,1.27 8.926,8.926 0 0 0 0.003,0.01 7.925,7.925 0 0 0 1.12,2.285 4.318,4.318 0 0 1 0.036,0.052 q 0.442,0.637 0.442,1.14 a 1.024,1.024 0 0 1 -0.136,0.517 1.62,1.62 0 0 1 0.84,0.511 2.166,2.166 0 0 1 0.332,0.514 q 0.309,0.657 0.251,1.039 a 0.608,0.608 0 0 1 -0.056,0.182 6.206,6.206 0 0 1 0.407,0.116 q 0.496,0.161 0.814,0.372 a 5.693,5.693 0 0 1 0.187,0.131 4.955,4.955 0 0 1 0.594,0.504 13.903,13.903 0 0 1 0.171,0.174 15.471,15.471 0 0 1 0.512,0.558 2.212,2.212 0 0 0 0.05,0.055 q 0.176,0.189 0.412,0.354 a 3.675,3.675 0 0 0 0.466,0.275 2.013,2.013 0 0 1 0.065,-0.062 q 0.459,-0.42 0.961,-0.329 l 1.611,0.293 a 2.558,2.558 0 0 0 0.751,-0.44 3.15,3.15 0 0 0 0.567,-0.634 42.783,42.783 0 0 0 1.026,-1.562 38.579,38.579 0 0 0 0.582,0.38 q 0.308,0.198 0.65,0.409 a 69.448,69.448 0 0 0 0.867,0.529 18.092,18.092 0 0 0 1.05,0.585 14.096,14.096 0 0 0 1.294,0.587 q 1.011,0.395 1.745,0.395 a 2.56,2.56 0 0 0 0.159,-0.004 1.199,1.199 0 0 0 0.07,-0.007 q 0.716,-0.087 0.809,-1.019 0.125,0.063 0.215,0.14 a 0.63,0.63 0 0 1 0.225,0.397 0.616,0.616 0 0 0 0.046,0.164 q 0.101,0.227 0.393,0.373 a 362.846,362.846 0 0 1 1.941,-0.402 465.965,465.965 0 0 1 2.112,-0.428 10.582,10.582 0 0 0 0.268,-0.057 q 1.187,-0.269 1.925,-0.74 a 2.842,2.842 0 0 0 0.785,-0.716 q 5.078,-0.782 9.717,-2.832 4.639,-2.051 9.033,-4.688 1.172,-0.977 1.514,-1.269 a 3.117,3.117 0 0 0 0.3,-0.296 3.965,3.965 0 0 0 0.335,-0.437 q 0.22,-0.329 0.659,-0.906 a 52.373,52.373 0 0 1 0.317,-0.412 q 0.516,-0.663 1.642,-2.103 a 3845.093,3845.093 0 0 1 0.8,-1.022 1.304,1.304 0 0 0 0.01,-0.042 q 0.066,-0.309 0.02,-0.786 a 5.502,5.502 0 0 0 -0.03,-0.246 1.597,1.597 0 0 0 -0.043,-0.205 z m -15.485,-3.799 a 2.96,2.96 0 0 0 -1.074,1.562 60.275,60.275 0 0 0 -0.606,0.222 54.399,54.399 0 0 0 -4.032,1.682 143.377,143.377 0 0 1 -4.493,2.002 67.974,67.974 0 0 1 -4.736,1.807 25.083,25.083 0 0 1 -2.064,0.602 30.775,30.775 0 0 1 -3.307,0.619 q 1.074,-3.125 2.246,-6.446 a 316.324,316.324 0 0 1 1.147,-3.198 252.446,252.446 0 0 1 1.099,-2.954 q 2.149,-0.293 4.248,-0.977 a 27.033,27.033 0 0 1 4.395,-1.025 q 1.295,-0.193 2.684,-0.168 a 19.452,19.452 0 0 1 2.198,0.168 q 1.577,0.208 3.354,0.906 a 22.873,22.873 0 0 1 2.359,1.096 4.228,4.228 0 0 1 0.006,0.083 q 0.071,1.112 -0.494,1.724 a 7.343,7.343 0 0 1 -0.345,0.349 8.402,8.402 0 0 1 -1.022,0.823 46.695,46.695 0 0 0 -1.563,1.123 z m -2.343,-29.59 a 39.074,39.074 0 0 0 -1.532,-0.03 39.27,39.27 0 0 0 -8.38,0.909 35.592,35.592 0 0 0 -3.875,1.062 q -1.92,0.653 -3.512,1.485 a 19.759,19.759 0 0 0 -0.865,0.48 q 1.66,1.367 3.369,2.441 a 7.529,7.529 0 0 1 2.685,2.93 27.343,27.343 0 0 0 5.12,-2.742 24.336,24.336 0 0 0 1.619,-1.213 39.51,39.51 0 0 0 5.371,-5.322 z"
         id="12"
         vector-effect="non-scaling-stroke"
         style="fill:#000000" />
      <path
         d="m 722.09,17.75 a 8.343,8.343 0 0 0 -0.035,-0.27 17.883,17.883 0 0 1 -0.345,-0.149 15.976,15.976 0 0 1 -3.024,-1.755 q -1.514,-1.123 -2.49,-2.783 0.09,0.81 -0.359,0.583 a 0.937,0.937 0 0 1 -0.081,-0.046 0.838,0.838 0 0 0 -0.008,-0.005 q -0.45,-0.279 -0.797,0.303 a 2.271,2.271 0 0 0 -0.122,0.239 1.629,1.629 0 0 1 -0.658,-0.148 q -0.253,-0.111 -0.517,-0.306 a 4.413,4.413 0 0 1 -0.485,-0.425 q -2.308,0.44 -4.337,0.756 a 89.474,89.474 0 0 1 -2.988,0.416 263.403,263.403 0 0 0 -1.596,0.199 235.447,235.447 0 0 0 -4.605,0.631 85.332,85.332 0 0 0 -6.055,1.123 53.923,53.923 0 0 0 -0.881,0.204 q -1.347,0.323 -2.842,0.751 a 95.677,95.677 0 0 0 -3.259,0.998 173.716,173.716 0 0 1 -2.1,0.464 149.334,149.334 0 0 1 -2.001,0.415 29.706,29.706 0 0 0 -1.424,0.321 24.666,24.666 0 0 0 -2.19,0.656 14.23,14.23 0 0 0 -3.076,1.514 q -1.416,0.927 -2.393,2.392 0.489,1.66 0.684,3.272 a 44.843,44.843 0 0 0 0.488,3.125 14.283,14.283 0 0 0 0.079,0.378 15.554,15.554 0 0 0 0.849,2.649 7.3,7.3 0 0 0 0.711,1.3 8.843,8.843 0 0 0 1.291,1.483 43.055,43.055 0 0 1 -0.607,1.558 33.785,33.785 0 0 1 -0.809,1.811 255.629,255.629 0 0 1 -1.465,2.979 65.245,65.245 0 0 0 -1.416,3.027 35.764,35.764 0 0 0 -0.336,0.794 40.494,40.494 0 0 0 -0.933,2.526 2.084,2.084 0 0 0 -0.017,-0.002 q -0.436,-0.059 -0.628,0.106 a 0.423,0.423 0 0 0 -0.137,0.238 0.639,0.639 0 0 1 -0.331,0.45 0.924,0.924 0 0 1 -0.255,0.087 3.371,3.371 0 0 1 0.009,0.041 q 0.27,1.344 -0.643,2.498 a 6.125,6.125 0 0 0 -1.221,2.637 q -0.293,1.367 -0.147,3.027 a 41.558,41.558 0 0 0 0.44,3.37 235.43,235.43 0 0 0 0.146,0.845 206.925,206.925 0 0 0 0.44,2.426 36.249,36.249 0 0 1 0.018,0.099 q 0.137,0.739 0.229,1.412 a 22.397,22.397 0 0 1 0.144,1.321 3.027,3.027 0 0 1 0.577,0.338 1.951,1.951 0 0 1 0.741,1.078 q 0.244,0.928 1.025,1.611 a 9.134,9.134 0 0 0 2.199,1.615 11.417,11.417 0 0 0 2.586,0.973 26.778,26.778 0 0 0 0.737,0.174 29.262,29.262 0 0 0 5.416,0.656 q 3.222,0.098 6.347,-0.293 a 87.363,87.363 0 0 0 1.417,-0.188 q 2.235,-0.317 3.955,-0.69 a 4.237,4.237 0 0 1 0.667,0.05 3.072,3.072 0 0 1 0.7,0.194 1.685,1.685 0 0 0 0.325,0.097 q 0.345,0.068 0.769,0.016 a 3.861,3.861 0 0 0 0.371,-0.064 318.693,318.693 0 0 1 3.454,-0.635 237.107,237.107 0 0 1 3.137,-0.537 35.107,35.107 0 0 0 2.332,-0.462 27.942,27.942 0 0 0 3.088,-0.906 q 2.442,-0.878 4.346,-2.587 1.19,-1.069 2.209,-2.728 a 20.164,20.164 0 0 0 1.16,-2.204 1.685,1.685 0 0 1 -0.114,0.015 q -0.496,0.048 -0.716,-0.259 a 1.882,1.882 0 0 1 -0.21,-0.385 2.448,2.448 0 0 1 -0.132,-0.445 13.662,13.662 0 0 0 -0.066,-0.31 16.166,16.166 0 0 0 -0.178,-0.716 2.054,2.054 0 0 0 -0.537,-0.927 2.807,2.807 0 0 1 -0.037,0.003 q -0.206,0.021 -0.397,0.008 a 1.749,1.749 0 0 1 -1.031,-0.402 8.325,8.325 0 0 1 -0.29,-0.253 9.447,9.447 0 0 1 -0.833,-0.87 58.873,58.873 0 0 1 -0.549,-0.659 70.524,70.524 0 0 1 -0.574,-0.708 3.808,3.808 0 0 0 -0.285,-0.319 3.033,3.033 0 0 0 -1.082,-0.707 q -2.246,0.782 -4.932,1.123 a 15.407,15.407 0 0 0 -2.209,0.44 11.399,11.399 0 0 0 -2.429,0.976 58.857,58.857 0 0 0 -0.871,-0.02 q -1.751,-0.029 -3.13,0.061 a 22.2,22.2 0 0 0 -1.175,0.106 688.028,688.028 0 0 0 -4.004,0.488 46.526,46.526 0 0 1 -1.245,0.138 54.997,54.997 0 0 1 -2.906,0.204 15.464,15.464 0 0 1 -0.092,0.004 q -1.48,0.057 -3.46,-0.147 a 45.557,45.557 0 0 1 -1.965,-0.248 42.655,42.655 0 0 1 0.008,-0.02 38.544,38.544 0 0 1 2.238,-4.96 q 1.27,-2.344 2.832,-4.395 a 6.504,6.504 0 0 0 1.109,0.261 q 0.589,0.087 1.244,0.087 a 10.303,10.303 0 0 0 0.333,-0.006 8.424,8.424 0 0 1 0.271,-0.004 q 0.628,0 1.176,0.097 a 4.759,4.759 0 0 1 1.14,0.347 1.933,1.933 0 0 1 0.207,-0.112 q 0.629,-0.295 1.599,-0.223 a 6.207,6.207 0 0 1 0.392,0.042 q 0.91,0.125 1.558,-0.032 a 2.152,2.152 0 0 0 0.639,-0.261 2.823,2.823 0 0 0 0.118,0.084 q 0.196,0.131 0.35,0.18 a 0.558,0.558 0 0 0 0.167,0.029 h 0.732 a 17.074,17.074 0 0 0 0.711,0.015 q 0.722,0 1.4,-0.064 a 12.014,12.014 0 0 0 2.137,-0.391 19.381,19.381 0 0 0 3.613,-1.416 25.87,25.87 0 0 0 3.272,-2.002 182.684,182.684 0 0 1 3.125,-2.197 q 0.284,-0.71 0.284,-1.395 a 3.263,3.263 0 0 0 -0.04,-0.509 q -0.146,-0.928 -0.537,-1.709 -0.29,0.029 -0.558,0.01 a 2.539,2.539 0 0 1 -1.151,-0.352 6.601,6.601 0 0 1 -0.542,-0.364 7.933,7.933 0 0 1 -0.874,-0.759 57.116,57.116 0 0 1 -1.367,-1.416 10.719,10.719 0 0 0 -0.598,-0.594 8.218,8.218 0 0 0 -0.769,-0.627 q -0.098,-0.391 0.097,-0.537 0.171,-0.128 0.118,-0.519 a 1.938,1.938 0 0 0 -0.02,-0.116 q -4.004,0.098 -8.154,0.489 -2.706,0.254 -5.1,0.218 a 35.068,35.068 0 0 1 -2.469,-0.121 1.995,1.995 0 0 1 -0.088,-0.206 q -0.197,-0.535 -0.156,-1.307 0.049,-0.928 -0.342,-1.807 a 36.179,36.179 0 0 1 1.758,-0.537 3.875,3.875 0 0 0 0.294,-0.094 3.171,3.171 0 0 0 1.171,-0.736 11.746,11.746 0 0 0 0.539,0.042 q 1.032,0.055 1.766,-0.109 a 3.18,3.18 0 0 0 0.674,-0.226 2.496,2.496 0 0 1 1.086,-0.244 q 0.289,0 0.594,0.062 a 3.858,3.858 0 0 1 0.614,0.182 21.954,21.954 0 0 1 2.019,-1.087 17.871,17.871 0 0 1 4.476,-1.452 926.369,926.369 0 0 1 6.396,-1.123 26.386,26.386 0 0 0 0.774,-0.145 23.332,23.332 0 0 0 5.037,-1.613 q 1.699,-0.773 3.144,-2.386 a 15.157,15.157 0 0 0 1.592,-2.155 9.252,9.252 0 0 1 -0.065,-0.239 q -0.13,-0.507 -0.13,-0.787 a 4.416,4.416 0 0 1 0.007,-0.249 3.573,3.573 0 0 1 0.041,-0.385 24.755,24.755 0 0 0 0.049,-0.306 31.019,31.019 0 0 0 0.049,-0.329 q 0.039,-0.271 -0.014,-0.756 z"
         id="13"
         vector-effect="non-scaling-stroke"
         style="fill:#000000" />
      <path
         d="m 806.76,63.73 a 13.157,13.157 0 0 0 -0.037,-0.742 6.736,6.736 0 0 1 -0.272,-0.57 q -0.46,-1.1 -0.265,-1.92 a 3.487,3.487 0 0 0 0.094,-0.81 q 0,-0.292 -0.046,-0.593 a 4.797,4.797 0 0 0 -0.194,-0.794 6.113,6.113 0 0 0 0.329,-0.357 6.822,6.822 0 0 0 0.843,-1.255 17.776,17.776 0 0 0 0.878,-1.953 q 0.391,-1.025 0.782,-2.002 0.39,-0.976 1.074,-1.757 0.391,-3.907 1.318,-7.373 a 126.125,126.125 0 0 0 0.058,-0.217 137.105,137.105 0 0 0 1.651,-6.961 359.929,359.929 0 0 0 -0.244,-6.153 116.596,116.596 0 0 0 -0.039,-0.753 106.176,106.176 0 0 0 -0.4,-5.106 9.795,9.795 0 0 1 -2.393,-2.783 q -0.928,-1.611 -1.758,-3.418 a 175.498,175.498 0 0 1 -1.611,-3.613 19.802,19.802 0 0 0 -1.856,-3.37 q -1.757,0.391 -2.978,1.709 a 8.196,8.196 0 0 0 -0.77,0.97 9.222,9.222 0 0 0 -1.086,2.204 14.074,14.074 0 0 0 -0.732,3.907 14.257,14.257 0 0 0 -0.016,0.678 12.633,12.633 0 0 0 0.407,3.228 1.996,1.996 0 0 0 -0.115,0.036 1.467,1.467 0 0 0 -0.862,0.745 2.883,2.883 0 0 1 -0.781,0.977 23.429,23.429 0 0 1 0.251,3.396 21.922,21.922 0 0 1 -0.446,4.416 103.213,103.213 0 0 0 -1.27,7.617 23.666,23.666 0 0 1 -0.798,0.399 26.457,26.457 0 0 1 -3.645,1.408 q -2.393,0.732 -4.932,1.318 -2.539,0.586 -5.078,1.074 a 99.431,99.431 0 0 0 -0.632,0.124 89.84,89.84 0 0 0 -4.251,0.951 2.82,2.82 0 0 0 0.034,-0.095 q 0.18,-0.539 -0.029,-0.714 a 0.35,0.35 0 0 0 -0.151,-0.07 0.639,0.639 0 0 1 -0.45,-0.331 0.924,0.924 0 0 1 -0.087,-0.255 63.856,63.856 0 0 0 0.248,-1.104 q 0.127,-0.586 0.259,-1.238 a 123.551,123.551 0 0 0 0.323,-1.662 325.583,325.583 0 0 0 0.219,-1.184 366.061,366.061 0 0 0 0.659,-3.699 96.936,96.936 0 0 0 0.733,-4.98 92.459,92.459 0 0 0 0.078,-0.675 q 0.229,-2.028 0.313,-3.622 a 26.368,26.368 0 0 0 -0.689,-1.23 21.739,21.739 0 0 0 -1.411,-2.091 222.233,222.233 0 0 0 -2.246,-2.88 26.835,26.835 0 0 1 -2.051,-2.979 13.405,13.405 0 0 1 -0.771,-1.516 17.062,17.062 0 0 1 -0.743,-2.097 8.441,8.441 0 0 0 -0.326,0.102 6.755,6.755 0 0 0 -4.068,3.56 19.867,19.867 0 0 0 -1.172,3.003 26.071,26.071 0 0 0 -0.781,3.442 q -0.586,3.662 -0.83,7.715 a 84.29,84.29 0 0 1 -0.004,0.063 q -0.122,1.992 -0.326,3.782 a 52.441,52.441 0 0 1 -0.5,3.43 q -0.519,-0.103 -0.79,-0.014 a 0.391,0.391 0 0 0 -0.285,0.307 4.291,4.291 0 0 1 0.145,0.473 q 0.081,0.326 0.131,0.709 a 9.404,9.404 0 0 1 0.066,0.82 8.775,8.775 0 0 1 0.007,0.351 q 0,1.058 -0.251,2.188 a 14.959,14.959 0 0 1 -0.83,2.588 q -0.537,1.27 -1.221,1.953 a 26.994,26.994 0 0 1 -0.2,2.197 37.101,37.101 0 0 1 -0.386,2.345 11.615,11.615 0 0 1 -2.05,4.638 2.534,2.534 0 0 1 0.1,0.164 q 0.276,0.491 0.192,0.91 a 5.197,5.197 0 0 1 -0.006,0.031 5.581,5.581 0 0 1 -0.286,0.946 17.31,17.31 0 0 0 -0.196,0.513 22.027,22.027 0 0 0 -0.195,0.561 q -0.15,0.449 -0.07,1.069 a 4.411,4.411 0 0 0 0.07,0.396 1.12,1.12 0 0 0 -0.04,-0.038 q -0.219,-0.199 -0.381,-0.111 a 0.293,0.293 0 0 0 -0.067,0.051 0.837,0.837 0 0 0 -0.107,0.133 q -0.062,0.093 -0.11,0.213 a 1.851,1.851 0 0 0 -0.076,0.24 14.075,14.075 0 0 1 -0.014,0.053 q -0.046,0.184 -0.104,0.39 a 23.849,23.849 0 0 1 -0.127,0.436 3.596,3.596 0 0 1 -0.037,0.117 q -0.086,0.255 -0.187,0.416 a 0.855,0.855 0 0 1 -0.117,0.151 20.804,20.804 0 0 1 0.164,0.297 q 0.483,0.892 0.744,1.597 a 6.017,6.017 0 0 1 0.215,0.694 3.106,3.106 0 0 0 0.012,0.048 q 0.176,0.69 0.722,1.533 a 11.058,11.058 0 0 0 0.584,0.811 q -0.591,-0.337 -0.744,0.201 a 1.277,1.277 0 0 0 -0.037,0.19 q -0.092,0.732 0.332,0.692 a 0.577,0.577 0 0 0 0.058,-0.009 q 0,0.196 0.391,0.44 a 97.495,97.495 0 0 1 0.259,0.162 q 0.136,0.086 0.287,0.181 a 184.447,184.447 0 0 1 0.382,0.243 q 0.537,0.342 1.025,0.781 a 1.809,1.809 0 0 1 0.141,0.141 1.293,1.293 0 0 1 0.348,0.885 11.505,11.505 0 0 0 1.011,0.474 q 0.587,0.24 1.117,0.365 a 4.769,4.769 0 0 0 1.094,0.137 q 1.367,0 2.539,-0.439 a 14.223,14.223 0 0 0 2.246,-1.075 9.273,9.273 0 0 1 0.921,-0.475 11.268,11.268 0 0 1 1.521,-0.55 q 0.113,-0.282 0.095,-0.499 a 0.585,0.585 0 0 0 -0.095,-0.282 2.824,2.824 0 0 1 -0.123,-0.202 2.303,2.303 0 0 1 -0.17,-0.384 0.975,0.975 0 0 0 0.2,-0.021 q 0.415,-0.087 0.83,-0.534 a 3.939,3.939 0 0 0 0.337,-0.422 q 0.684,-0.976 1.269,-2.197 a 25.496,25.496 0 0 0 0.412,-0.902 20.984,20.984 0 0 0 0.565,-1.442 q 0.308,-0.886 0.373,-1.255 a 0.968,0.968 0 0 0 0.018,-0.161 34.389,34.389 0 0 1 0.128,-0.078 q 0.914,-0.558 2.188,-1.258 a 102.555,102.555 0 0 1 0.955,-0.519 78.574,78.574 0 0 1 1.28,-0.672 92.641,92.641 0 0 1 3.017,-1.477 q 2.295,-1.074 4.736,-1.855 a 24.521,24.521 0 0 1 1.656,-0.468 20.137,20.137 0 0 1 3.032,-0.509 0.262,0.262 0 0 1 -0.001,0.014 q -0.006,0.123 -0.111,0.868 a 130.303,130.303 0 0 1 -0.035,0.241 31.63,31.63 0 0 1 -0.171,1.062 39.292,39.292 0 0 1 -0.219,1.136 44.873,44.873 0 0 0 -0.22,1.123 33.636,33.636 0 0 0 -0.171,1.025 q -0.146,0.977 -0.146,1.074 -0.098,2.344 1.074,4.151 a 52.326,52.326 0 0 1 1.201,1.949 72.024,72.024 0 0 1 1.24,2.201 6.406,6.406 0 0 1 0.53,0.184 5.297,5.297 0 0 1 1.179,0.646 24.655,24.655 0 0 0 1.514,1.026 105.409,105.409 0 0 0 0.416,-0.148 116.993,116.993 0 0 0 3.002,-1.122 10.74,10.74 0 0 0 3.125,-1.855 q 1.367,-1.172 2.148,-2.833 0.664,-1.411 0.623,-3.457 z"
         id="15"
         vector-effect="non-scaling-stroke"
         style="fill:#000000" />
      <path
         d="m 869.453,17.75 a 8.343,8.343 0 0 0 -0.034,-0.27 17.883,17.883 0 0 1 -0.345,-0.149 15.976,15.976 0 0 1 -3.025,-1.755 q -1.513,-1.123 -2.49,-2.783 0.09,0.81 -0.359,0.583 a 0.937,0.937 0 0 1 -0.08,-0.046 0.838,0.838 0 0 0 -0.008,-0.005 q -0.451,-0.279 -0.798,0.303 a 2.271,2.271 0 0 0 -0.122,0.239 1.629,1.629 0 0 1 -0.657,-0.148 q -0.254,-0.111 -0.517,-0.306 a 4.413,4.413 0 0 1 -0.486,-0.425 q -2.307,0.44 -4.336,0.756 a 89.474,89.474 0 0 1 -2.988,0.416 263.403,263.403 0 0 0 -1.596,0.199 235.447,235.447 0 0 0 -4.606,0.631 85.332,85.332 0 0 0 -6.054,1.123 53.923,53.923 0 0 0 -0.882,0.204 q -1.347,0.323 -2.842,0.751 a 95.677,95.677 0 0 0 -3.259,0.998 173.716,173.716 0 0 1 -2.099,0.464 149.334,149.334 0 0 1 -2.002,0.415 29.706,29.706 0 0 0 -1.424,0.321 24.666,24.666 0 0 0 -2.189,0.656 14.23,14.23 0 0 0 -3.077,1.514 q -1.416,0.927 -2.392,2.392 0.488,1.66 0.683,3.272 a 44.843,44.843 0 0 0 0.489,3.125 14.283,14.283 0 0 0 0.078,0.378 15.554,15.554 0 0 0 0.849,2.649 7.3,7.3 0 0 0 0.711,1.3 8.843,8.843 0 0 0 1.291,1.483 43.055,43.055 0 0 1 -0.607,1.558 33.785,33.785 0 0 1 -0.809,1.811 255.629,255.629 0 0 1 -1.465,2.979 65.245,65.245 0 0 0 -1.416,3.027 35.764,35.764 0 0 0 -0.335,0.794 40.494,40.494 0 0 0 -0.934,2.526 2.084,2.084 0 0 0 -0.017,-0.002 q -0.435,-0.059 -0.628,0.106 a 0.423,0.423 0 0 0 -0.136,0.238 0.639,0.639 0 0 1 -0.332,0.45 0.924,0.924 0 0 1 -0.254,0.087 3.371,3.371 0 0 1 0.008,0.041 q 0.271,1.344 -0.643,2.498 a 6.125,6.125 0 0 0 -1.221,2.637 q -0.293,1.367 -0.146,3.027 a 41.558,41.558 0 0 0 0.439,3.37 235.43,235.43 0 0 0 0.147,0.845 206.925,206.925 0 0 0 0.439,2.426 36.249,36.249 0 0 1 0.019,0.099 q 0.136,0.739 0.228,1.412 a 22.397,22.397 0 0 1 0.144,1.321 3.027,3.027 0 0 1 0.577,0.338 1.951,1.951 0 0 1 0.741,1.078 q 0.244,0.928 1.026,1.611 a 9.134,9.134 0 0 0 2.199,1.615 11.417,11.417 0 0 0 2.586,0.973 26.778,26.778 0 0 0 0.737,0.174 29.262,29.262 0 0 0 5.415,0.656 q 3.223,0.098 6.348,-0.293 a 87.363,87.363 0 0 0 1.416,-0.188 q 2.235,-0.317 3.955,-0.69 a 4.237,4.237 0 0 1 0.668,0.05 3.072,3.072 0 0 1 0.699,0.194 1.685,1.685 0 0 0 0.325,0.097 q 0.345,0.068 0.769,0.016 a 3.861,3.861 0 0 0 0.371,-0.064 318.693,318.693 0 0 1 3.454,-0.635 237.107,237.107 0 0 1 3.138,-0.537 35.107,35.107 0 0 0 2.331,-0.462 27.942,27.942 0 0 0 3.089,-0.906 q 2.441,-0.878 4.345,-2.587 1.19,-1.069 2.209,-2.728 a 20.164,20.164 0 0 0 1.16,-2.204 1.685,1.685 0 0 1 -0.114,0.015 q -0.496,0.048 -0.716,-0.259 a 1.882,1.882 0 0 1 -0.21,-0.385 2.448,2.448 0 0 1 -0.131,-0.445 13.662,13.662 0 0 0 -0.066,-0.31 16.166,16.166 0 0 0 -0.179,-0.716 2.054,2.054 0 0 0 -0.537,-0.927 2.807,2.807 0 0 1 -0.036,0.003 q -0.207,0.021 -0.397,0.008 a 1.749,1.749 0 0 1 -1.032,-0.402 8.325,8.325 0 0 1 -0.29,-0.253 9.447,9.447 0 0 1 -0.833,-0.87 58.873,58.873 0 0 1 -0.549,-0.659 70.524,70.524 0 0 1 -0.574,-0.708 3.808,3.808 0 0 0 -0.285,-0.319 3.033,3.033 0 0 0 -1.082,-0.707 q -2.246,0.782 -4.932,1.123 a 15.407,15.407 0 0 0 -2.209,0.44 11.399,11.399 0 0 0 -2.429,0.976 58.857,58.857 0 0 0 -0.871,-0.02 q -1.751,-0.029 -3.129,0.061 a 22.2,22.2 0 0 0 -1.176,0.106 688.028,688.028 0 0 0 -4.004,0.488 46.526,46.526 0 0 1 -1.244,0.138 54.997,54.997 0 0 1 -2.906,0.204 15.464,15.464 0 0 1 -0.092,0.004 q -1.481,0.057 -3.46,-0.147 a 45.557,45.557 0 0 1 -1.966,-0.248 42.655,42.655 0 0 1 0.008,-0.02 38.544,38.544 0 0 1 2.238,-4.96 q 1.27,-2.344 2.832,-4.395 a 6.504,6.504 0 0 0 1.109,0.261 q 0.589,0.087 1.245,0.087 a 10.303,10.303 0 0 0 0.332,-0.006 8.424,8.424 0 0 1 0.271,-0.004 q 0.628,0 1.177,0.097 a 4.759,4.759 0 0 1 1.14,0.347 1.933,1.933 0 0 1 0.206,-0.112 q 0.63,-0.295 1.599,-0.223 a 6.207,6.207 0 0 1 0.392,0.042 q 0.91,0.125 1.558,-0.032 a 2.152,2.152 0 0 0 0.639,-0.261 2.823,2.823 0 0 0 0.118,0.084 q 0.196,0.131 0.35,0.18 a 0.558,0.558 0 0 0 0.167,0.029 h 0.732 a 17.074,17.074 0 0 0 0.711,0.015 q 0.722,0 1.4,-0.064 a 12.014,12.014 0 0 0 2.137,-0.391 19.381,19.381 0 0 0 3.614,-1.416 25.87,25.87 0 0 0 3.271,-2.002 182.684,182.684 0 0 1 3.125,-2.197 q 0.284,-0.71 0.284,-1.395 a 3.263,3.263 0 0 0 -0.04,-0.509 q -0.146,-0.928 -0.537,-1.709 -0.29,0.029 -0.558,0.01 a 2.539,2.539 0 0 1 -1.151,-0.352 6.601,6.601 0 0 1 -0.542,-0.364 7.933,7.933 0 0 1 -0.874,-0.759 57.116,57.116 0 0 1 -1.367,-1.416 10.719,10.719 0 0 0 -0.598,-0.594 8.218,8.218 0 0 0 -0.769,-0.627 q -0.098,-0.391 0.098,-0.537 0.171,-0.128 0.117,-0.519 a 1.938,1.938 0 0 0 -0.02,-0.116 q -4.004,0.098 -8.154,0.489 -2.705,0.254 -5.099,0.218 a 35.068,35.068 0 0 1 -2.469,-0.121 1.995,1.995 0 0 1 -0.089,-0.206 q -0.196,-0.535 -0.156,-1.307 0.049,-0.928 -0.341,-1.807 a 36.179,36.179 0 0 1 1.757,-0.537 3.875,3.875 0 0 0 0.294,-0.094 3.171,3.171 0 0 0 1.171,-0.736 11.746,11.746 0 0 0 0.539,0.042 q 1.033,0.055 1.767,-0.109 a 3.18,3.18 0 0 0 0.673,-0.226 2.496,2.496 0 0 1 1.086,-0.244 q 0.289,0 0.594,0.062 a 3.858,3.858 0 0 1 0.615,0.182 21.954,21.954 0 0 1 2.019,-1.087 17.871,17.871 0 0 1 4.475,-1.452 926.369,926.369 0 0 1 6.396,-1.123 26.386,26.386 0 0 0 0.775,-0.145 23.332,23.332 0 0 0 5.036,-1.613 q 1.699,-0.773 3.145,-2.386 a 15.157,15.157 0 0 0 1.591,-2.155 9.252,9.252 0 0 1 -0.065,-0.239 q -0.13,-0.507 -0.13,-0.787 a 4.416,4.416 0 0 1 0.007,-0.249 3.573,3.573 0 0 1 0.042,-0.385 24.755,24.755 0 0 0 0.049,-0.306 31.019,31.019 0 0 0 0.048,-0.329 q 0.039,-0.271 -0.014,-0.756 z"
         id="16"
         vector-effect="non-scaling-stroke"
         style="fill:#000000" />
      <path
         d="m 909.458,20.605 v 1.172 a 8.896,8.896 0 0 1 1.904,2.491 25.303,25.303 0 0 1 1.151,2.578 28.296,28.296 0 0 1 0.167,0.449 l 1.172,3.223 a 23.838,23.838 0 0 0 1.367,3.076 3.568,3.568 0 0 0 -0.107,0.304 q -0.045,0.153 -0.067,0.288 a 1.482,1.482 0 0 0 -0.021,0.238 1.828,1.828 0 0 0 0.044,0.388 2.484,2.484 0 0 0 0.103,0.344 7.193,7.193 0 0 1 0.244,0.781 1.531,1.531 0 0 1 0.035,0.2 q 0.036,0.319 -0.023,0.78 a 5.978,5.978 0 0 1 -0.012,0.095 q -0.293,4.297 -2.784,6.933 a 20.161,20.161 0 0 1 -5.143,3.904 23.257,23.257 0 0 1 -0.862,0.442 47.567,47.567 0 0 1 -6.773,2.656 52.77,52.77 0 0 1 -0.747,0.225 q -4.004,1.172 -7.226,2.539 a 0.65,0.65 0 0 0 0.015,0.147 q 0.047,0.201 0.239,0.236 a 0.489,0.489 0 0 0 0.087,0.008 0.335,0.335 0 0 1 0.116,0.018 q 0.207,0.076 0.128,0.47 2.344,1.465 3.711,2.344 1.368,0.878 2.588,1.464 a 18.67,18.67 0 0 0 1.941,0.797 21.442,21.442 0 0 0 0.696,0.229 29.795,29.795 0 0 0 0.778,0.229 q 1.273,0.357 3.177,0.796 a 781.904,781.904 0 0 1 1.199,0.278 q 1.165,0.271 2.031,0.476 a 210.923,210.923 0 0 1 0.725,0.174 q 1.416,0.342 2.588,0.586 1.172,0.244 2.393,0.391 a 55.102,55.102 0 0 0 0.674,0.076 q 0.762,0.082 1.796,0.176 a 214.452,214.452 0 0 0 0.996,0.089 q 0.879,0.879 1.514,2.1 a 8.532,8.532 0 0 1 0.633,1.564 7.308,7.308 0 0 1 0.197,0.877 q 0.13,0.814 0.13,1.585 A 8.764,8.764 0 0 1 920.2,69.58 q -0.092,1.059 -0.618,1.727 a 2.474,2.474 0 0 1 -0.066,0.08 q 0.093,0.277 0.404,0.248 a 0.734,0.734 0 0 0 0.036,-0.004 q 0.341,-0.049 0.732,0.049 -0.586,0.39 -0.976,0.976 l -0.782,1.172 a 5.506,5.506 0 0 1 -0.699,0.856 5.014,5.014 0 0 1 -0.18,0.17 q -0.488,0.439 -1.367,0.537 a 9.17,9.17 0 0 1 -2.184,0.536 q -2.317,0.288 -5.299,-0.36 a 24.305,24.305 0 0 1 -0.134,-0.03 q -4.59,-1.025 -11.621,-3.76 -3.516,-1.367 -5.713,-2.392 a 40.535,40.535 0 0 1 -1.931,-0.962 q -0.894,-0.476 -1.661,-0.953 a 23.794,23.794 0 0 1 -0.217,-0.136 q -1.611,-1.025 -2.929,-2.197 -0.907,-0.806 -2.067,-1.842 a 1875.13,1875.13 0 0 1 -1.107,-0.99 101.506,101.506 0 0 1 -0.522,1.834 q -0.582,1.969 -1.083,3.311 a 23.156,23.156 0 0 1 -0.299,0.763 15.551,15.551 0 0 1 -1.038,2.038 q -0.623,1.038 -1.453,2.112 -0.959,-0.147 -1.472,0.095 a 1.009,1.009 0 0 0 -0.285,0.198 7.026,7.026 0 0 1 -1.075,0.879 q -0.879,0.195 -1.269,0 a 3.834,3.834 0 0 1 -0.43,-0.249 3.13,3.13 0 0 1 -0.254,-0.19 3.755,3.755 0 0 0 -0.284,-0.214 q -0.151,-0.103 -0.327,-0.206 a 6.732,6.732 0 0 0 -0.121,-0.069 1.57,1.57 0 0 0 -0.345,-0.136 q -0.39,-0.108 -0.974,-0.108 a 16.407,16.407 0 0 0 -0.291,-1.028 14.037,14.037 0 0 0 -0.148,-0.437 q -0.237,-0.662 -1.252,-0.499 a 3.191,3.191 0 0 0 -0.066,0.011 q 0.174,-0.699 0.115,-1.202 a 1.898,1.898 0 0 0 -0.018,-0.116 7.939,7.939 0 0 0 -0.125,-0.573 6.201,6.201 0 0 0 -0.119,-0.404 8.849,8.849 0 0 1 -0.244,-0.879 1.373,1.373 0 0 1 -0.029,-0.209 q -0.02,-0.31 0.075,-0.716 a 4.263,4.263 0 0 1 0.052,-0.198 0.664,0.664 0 0 1 -0.482,-0.21 q -0.169,-0.169 -0.3,-0.473 a 13.311,13.311 0 0 0 -0.635,-1.282 14.548,14.548 0 0 0 -0.048,-0.086 182.172,182.172 0 0 1 0.293,-1.708 153.507,153.507 0 0 1 0.293,-1.612 25.25,25.25 0 0 1 0.472,-2.056 21.688,21.688 0 0 1 0.26,-0.874 28.333,28.333 0 0 0 0.733,-2.734 4.39,4.39 0 0 0 0.097,-0.922 q 0,-0.669 -0.2,-1.36 a 5.941,5.941 0 0 0 -0.19,-0.55 0.826,0.826 0 0 0 0.085,0.057 q 0.286,0.163 0.455,-0.114 a 0.79,0.79 0 0 0 0.046,-0.089 2.859,2.859 0 0 0 0.127,-0.354 q 0.103,-0.349 0.166,-0.818 0.097,-0.733 0.097,-1.465 a 9.092,9.092 0 0 0 -0.013,-0.505 q -0.013,-0.229 -0.038,-0.427 a 4.133,4.133 0 0 0 -0.046,-0.289 40.465,40.465 0 0 0 1.611,-5.224 q 0.635,-2.686 1.172,-5.323 a 204.963,204.963 0 0 1 1.123,-5.175 25.939,25.939 0 0 1 0.99,-3.307 22.419,22.419 0 0 1 0.572,-1.381 q 0.738,-0.134 1.59,0.031 a 6.372,6.372 0 0 1 0.803,0.213 5.423,5.423 0 0 1 0.594,0.235 q 0.797,0.375 1.017,0.888 2.539,-1.953 4.492,-4.736 1.954,-2.783 4.004,-5.42 2.051,-2.637 4.541,-4.688 a 10.505,10.505 0 0 1 3.837,-1.976 14.187,14.187 0 0 1 2.462,-0.465 60.836,60.836 0 0 0 2.474,1.757 75.9,75.9 0 0 0 1.872,1.222 12.74,12.74 0 0 1 3.955,3.955 8.599,8.599 0 0 1 0.637,0.351 q 0.379,0.232 0.681,0.479 a 10.092,10.092 0 0 0 0.517,0.394 q 0.272,0.194 0.587,0.397 a 18.282,18.282 0 0 0 0.215,0.136 z m -16.065,11.036 a 18.344,18.344 0 0 0 2.393,-2.832 q 1.13,0.357 2.207,1.185 a 10.875,10.875 0 0 1 1.357,1.256 q 1.709,1.855 2.1,4.883 a 2115.684,2115.684 0 0 1 -3.418,1.404 2494.175,2494.175 0 0 1 -3.613,1.477 31.348,31.348 0 0 1 -2.799,0.994 24.781,24.781 0 0 1 -4.33,0.91 q 0.39,-2.148 1.367,-3.76 a 18.113,18.113 0 0 1 2.197,-2.929 63.262,63.262 0 0 1 2.539,-2.588 z"
         id="17"
         vector-effect="non-scaling-stroke"
         style="fill:#000000" />
      <path
         d="m 974.726,17.75 a 8.343,8.343 0 0 0 -0.034,-0.27 17.883,17.883 0 0 1 -0.345,-0.149 15.976,15.976 0 0 1 -3.024,-1.755 q -1.514,-1.123 -2.49,-2.783 0.09,0.81 -0.359,0.583 a 0.937,0.937 0 0 1 -0.081,-0.046 0.838,0.838 0 0 0 -0.008,-0.005 q -0.451,-0.279 -0.798,0.303 a 2.271,2.271 0 0 0 -0.122,0.239 1.629,1.629 0 0 1 -0.657,-0.148 q -0.254,-0.111 -0.517,-0.306 a 4.413,4.413 0 0 1 -0.486,-0.425 q -2.307,0.44 -4.336,0.756 a 89.474,89.474 0 0 1 -2.988,0.416 263.403,263.403 0 0 0 -1.596,0.199 235.447,235.447 0 0 0 -4.605,0.631 85.332,85.332 0 0 0 -6.055,1.123 53.923,53.923 0 0 0 -0.881,0.204 q -1.347,0.323 -2.842,0.751 a 95.677,95.677 0 0 0 -3.259,0.998 173.716,173.716 0 0 1 -2.1,0.464 149.334,149.334 0 0 1 -2.002,0.415 29.706,29.706 0 0 0 -1.423,0.321 24.666,24.666 0 0 0 -2.19,0.656 14.23,14.23 0 0 0 -3.076,1.514 q -1.416,0.927 -2.393,2.392 0.488,1.66 0.684,3.272 a 44.843,44.843 0 0 0 0.488,3.125 14.283,14.283 0 0 0 0.079,0.378 15.554,15.554 0 0 0 0.849,2.649 7.3,7.3 0 0 0 0.71,1.3 8.843,8.843 0 0 0 1.292,1.483 43.055,43.055 0 0 1 -0.608,1.558 33.785,33.785 0 0 1 -0.808,1.811 255.629,255.629 0 0 1 -1.465,2.979 65.245,65.245 0 0 0 -1.416,3.027 35.764,35.764 0 0 0 -0.336,0.794 40.494,40.494 0 0 0 -0.934,2.526 2.084,2.084 0 0 0 -0.016,-0.002 q -0.436,-0.059 -0.629,0.106 a 0.423,0.423 0 0 0 -0.136,0.238 0.639,0.639 0 0 1 -0.331,0.45 0.924,0.924 0 0 1 -0.255,0.087 3.371,3.371 0 0 1 0.009,0.041 q 0.27,1.344 -0.644,2.498 a 6.125,6.125 0 0 0 -1.22,2.637 q -0.293,1.367 -0.147,3.027 a 41.558,41.558 0 0 0 0.44,3.37 235.43,235.43 0 0 0 0.146,0.845 206.925,206.925 0 0 0 0.44,2.426 36.249,36.249 0 0 1 0.018,0.099 q 0.137,0.739 0.229,1.412 a 22.397,22.397 0 0 1 0.143,1.321 3.027,3.027 0 0 1 0.578,0.338 1.951,1.951 0 0 1 0.741,1.078 q 0.244,0.928 1.025,1.611 a 9.134,9.134 0 0 0 2.199,1.615 11.417,11.417 0 0 0 2.586,0.973 26.778,26.778 0 0 0 0.737,0.174 29.262,29.262 0 0 0 5.415,0.656 q 3.223,0.098 6.348,-0.293 a 87.363,87.363 0 0 0 1.417,-0.188 q 2.235,-0.317 3.954,-0.69 a 4.237,4.237 0 0 1 0.668,0.05 3.072,3.072 0 0 1 0.699,0.194 1.685,1.685 0 0 0 0.325,0.097 q 0.345,0.068 0.77,0.016 a 3.861,3.861 0 0 0 0.37,-0.064 318.693,318.693 0 0 1 3.455,-0.635 237.107,237.107 0 0 1 3.137,-0.537 35.107,35.107 0 0 0 2.331,-0.462 27.942,27.942 0 0 0 3.089,-0.906 q 2.441,-0.878 4.346,-2.587 1.19,-1.069 2.208,-2.728 a 20.164,20.164 0 0 0 1.161,-2.204 1.685,1.685 0 0 1 -0.115,0.015 q -0.496,0.048 -0.715,-0.259 a 1.882,1.882 0 0 1 -0.21,-0.385 2.448,2.448 0 0 1 -0.132,-0.445 13.662,13.662 0 0 0 -0.066,-0.31 16.166,16.166 0 0 0 -0.178,-0.716 2.054,2.054 0 0 0 -0.537,-0.927 2.807,2.807 0 0 1 -0.037,0.003 q -0.207,0.021 -0.397,0.008 a 1.749,1.749 0 0 1 -1.031,-0.402 8.325,8.325 0 0 1 -0.29,-0.253 9.447,9.447 0 0 1 -0.833,-0.87 58.873,58.873 0 0 1 -0.55,-0.659 70.524,70.524 0 0 1 -0.573,-0.708 3.808,3.808 0 0 0 -0.286,-0.319 3.033,3.033 0 0 0 -1.081,-0.707 q -2.247,0.782 -4.932,1.123 a 15.407,15.407 0 0 0 -2.21,0.44 11.399,11.399 0 0 0 -2.429,0.976 58.857,58.857 0 0 0 -0.871,-0.02 q -1.751,-0.029 -3.129,0.061 a 22.2,22.2 0 0 0 -1.176,0.106 688.028,688.028 0 0 0 -4.003,0.488 46.526,46.526 0 0 1 -1.245,0.138 54.997,54.997 0 0 1 -2.906,0.204 15.464,15.464 0 0 1 -0.092,0.004 q -1.48,0.057 -3.46,-0.147 a 45.557,45.557 0 0 1 -1.965,-0.248 42.655,42.655 0 0 1 0.007,-0.02 38.544,38.544 0 0 1 2.239,-4.96 q 1.269,-2.344 2.832,-4.395 a 6.504,6.504 0 0 0 1.109,0.261 q 0.588,0.087 1.244,0.087 a 10.303,10.303 0 0 0 0.332,-0.006 8.424,8.424 0 0 1 0.272,-0.004 q 0.628,0 1.176,0.097 a 4.759,4.759 0 0 1 1.14,0.347 1.933,1.933 0 0 1 0.206,-0.112 q 0.63,-0.295 1.6,-0.223 a 6.207,6.207 0 0 1 0.391,0.042 q 0.911,0.125 1.559,-0.032 a 2.152,2.152 0 0 0 0.639,-0.261 2.823,2.823 0 0 0 0.117,0.084 q 0.196,0.131 0.351,0.18 a 0.558,0.558 0 0 0 0.166,0.029 h 0.733 a 17.074,17.074 0 0 0 0.711,0.015 q 0.722,0 1.4,-0.064 a 12.014,12.014 0 0 0 2.137,-0.391 19.381,19.381 0 0 0 3.613,-1.416 25.87,25.87 0 0 0 3.272,-2.002 182.684,182.684 0 0 1 3.125,-2.197 q 0.284,-0.71 0.284,-1.395 a 3.263,3.263 0 0 0 -0.04,-0.509 q -0.147,-0.928 -0.537,-1.709 -0.29,0.029 -0.559,0.01 a 2.539,2.539 0 0 1 -1.15,-0.352 6.601,6.601 0 0 1 -0.543,-0.364 7.933,7.933 0 0 1 -0.873,-0.759 57.116,57.116 0 0 1 -1.367,-1.416 10.719,10.719 0 0 0 -0.599,-0.594 8.218,8.218 0 0 0 -0.769,-0.627 q -0.097,-0.391 0.098,-0.537 0.171,-0.128 0.117,-0.519 a 1.938,1.938 0 0 0 -0.019,-0.116 q -4.004,0.098 -8.155,0.489 -2.705,0.254 -5.099,0.218 a 35.068,35.068 0 0 1 -2.469,-0.121 1.995,1.995 0 0 1 -0.089,-0.206 q -0.196,-0.535 -0.155,-1.307 0.049,-0.928 -0.342,-1.807 a 36.179,36.179 0 0 1 1.758,-0.537 3.875,3.875 0 0 0 0.293,-0.094 3.171,3.171 0 0 0 1.172,-0.736 11.746,11.746 0 0 0 0.539,0.042 q 1.032,0.055 1.766,-0.109 a 3.18,3.18 0 0 0 0.673,-0.226 2.496,2.496 0 0 1 1.087,-0.244 q 0.289,0 0.593,0.062 a 3.858,3.858 0 0 1 0.615,0.182 21.954,21.954 0 0 1 2.019,-1.087 17.871,17.871 0 0 1 4.475,-1.452 926.369,926.369 0 0 1 6.397,-1.123 26.386,26.386 0 0 0 0.774,-0.145 23.332,23.332 0 0 0 5.036,-1.613 q 1.7,-0.773 3.145,-2.386 a 15.157,15.157 0 0 0 1.592,-2.155 9.252,9.252 0 0 1 -0.065,-0.239 q -0.131,-0.507 -0.131,-0.787 a 4.416,4.416 0 0 1 0.007,-0.249 3.573,3.573 0 0 1 0.042,-0.385 24.755,24.755 0 0 0 0.049,-0.306 31.019,31.019 0 0 0 0.049,-0.329 q 0.038,-0.271 -0.015,-0.756 z"
         id="18"
         vector-effect="non-scaling-stroke"
         style="fill:#000000" />
    </g>
    <g
       id="g14"
       transform="matrix(18.939467,0,0,18.939467,338.94699,-1829.0076)">
      <path
         class="st0"
         d="m 51.8,56.2 c -0.1,0.2 -0.2,0.5 -0.2,0.5 -0.1,0 -0.2,-0.1 -0.3,-0.1 -0.8,1.1 -1.4,2.2 -1.9,3.1 0,0 0,0 0,0 0,0 0.1,0.1 0.1,0.1 -0.1,0 -0.1,0 -0.2,0.1 0,0 0,0 0,0 -0.5,1 -0.8,1.9 -0.9,2.3 l 0.1,-0.3 c -0.5,2.2 -0.6,1.8 -0.9,3.6 0.2,-0.2 0.1,1.7 0.1,2.3 v 0 c -0.1,1.1 0.2,3.4 0.3,5 l -0.1,-0.1 c 0.2,1.1 0.3,2.9 0.4,4.1 0,0 0.1,0 0.1,0.1 0,0.1 -0.1,0.1 -0.1,0.2 0,0.2 0,0.4 0,0.5 0.1,2.2 0.3,5.5 0.2,8.2 0,0.1 -0.1,0.2 -0.1,0.4 0.2,-0.2 0.5,-0.3 0.7,-0.4 0,0 0.2,0.2 0.3,0.5 -0.3,0.1 -0.6,0.2 -0.8,0.2 -0.1,0 -0.2,0 -0.3,-0.1 -0.1,0.4 -0.2,0.8 -0.4,1.1 v 0.2 c 0,-0.2 3.1,3.9 4.6,-0.1 l 0.1,0.1 0.1,-0.8 c 0.2,-1 0.1,-1.5 0.2,-1.4 v 0 c 0,-0.1 0,-0.2 0,-0.3 0,-0.3 0,-0.7 0,-1 0,-1 0.2,-0.1 0.2,-1.2 0,-6.2 -1.2,-11.8 -0.5,-17 0.1,-0.1 0,0 0,0.2 0.2,-1.5 0.5,-2.8 1,-4 0.2,-0.3 0.3,-0.4 0.4,-0.5 -0.1,0.1 0.7,-1.6 2,-3 0.7,-0.7 1.4,-1.4 2,-1.9 0.6,-0.5 1.1,-0.8 1.1,-0.8 v -0.2 c 1.3,-0.9 0.5,-0.1 1.7,-1 0.3,-0.6 2.2,-1.3 2.6,-1.7 0,0 0.7,-0.3 0.7,-0.2 0.1,-0.2 0.7,-0.4 1.1,-0.7 0.1,-0.1 -0.1,0 -0.3,0 l 1,-0.6 c 0.4,-0.2 0.5,-0.1 0.1,0.1 1.3,-0.7 5.1,-2.6 9,-4.2 3.9,-1.6 8,-2.8 9.4,-3.2 -0.4,0 -1.3,0.3 -1.7,0.2 0.8,-0.3 1.2,-0.3 1.5,-0.5 0.4,0.2 1.8,-0.4 2.4,-0.2 l 0.2,-0.2 h 0.4 c 3.5,-0.8 0.8,-0.3 3.9,-0.7 1.8,-0.2 2.7,-0.5 3.7,-0.5 -0.2,0 -0.6,-0.1 -0.1,-0.1 0.1,0.1 1.3,-0.1 1.5,0 0.5,0 2,0 1.5,-0.2 0.3,0.1 1.6,0.2 0.8,0.2 0.4,0 0.9,0.1 1.2,0.1 l -0.6,-0.1 c 1.5,0.1 2.3,0.3 3.3,0.3 l -0.5,-0.1 c 0.9,0.1 1.6,0.2 2,0.4 L 103,42.8 c 1.2,0.2 1.8,0.3 3.6,0.6 l -0.4,-0.1 c 0.8,0.1 3.2,0.7 5.5,1.6 2.3,0.9 4.4,2.1 5,2.5 l -0.5,-0.5 1.1,0.6 c -0.1,-0.1 -0.8,0 -0.8,-0.1 1.2,0.6 4.5,3.2 7.2,6.5 2.7,3.2 4.6,7 5.1,8.2 0.4,1 -0.1,0.3 -0.1,0.3 0.6,1.1 0.4,0.4 0.8,1.4 0.1,0.3 -0.1,0 -0.2,-0.2 0.2,0.4 0.3,0.8 0.4,0.8 -0.2,-0.6 0.1,-0.4 0.1,-0.7 l 0.5,1.3 h -0.1 c 0.1,0.3 0.6,0.6 1,1.9 0.7,2.2 1.4,4.6 1.7,6.8 -0.1,0 -0.2,-0.5 -0.3,-1 0.1,0.3 0.2,0.8 0.2,1 0,-0.6 0.2,0.9 0.2,0.5 0.5,1.6 0.6,3.8 0.8,5.3 0.3,0 4.2,3.1 4.4,3.2 l 0.1,-0.1 c 0,-0.9 0.1,-1.7 0,-2.1 0,-0.8 0.2,0.1 0.2,-0.9 -0.1,-0.7 -0.2,-1.6 -0.2,-2.4 v 0 c -0.1,-1.9 -0.5,-2.9 -0.7,-4.7 l 0.1,0.2 c 0,-0.6 -0.3,-1.8 -0.6,-2.9 0.1,0.3 0,0.6 -0.1,0 -0.2,-1.3 -0.5,-2.1 -0.7,-3.1 l -0.4,-0.8 c -0.7,-2.2 -2.7,-7.5 -6,-12.1 -3.2,-4.7 -7.7,-8.4 -9.6,-9.7 l 0.2,0.1 c -2.8,-2.1 -7.7,-4.7 -13,-5.9 C 102.3,37 96.8,37 93.3,37.4 c -1.1,0 -2.6,0.2 -3.8,0.3 0.6,0 0.4,0.1 -0.1,0.1 -3.4,0.6 -0.2,0.1 -3.7,0.8 -2,0.5 -6.7,1.7 -11.1,3.5 -4.4,1.7 -8.6,3.8 -10.2,4.6 -1.6,1 -3.7,2 -5.3,3.1 l 0.1,-0.1 c -0.8,0.6 -3.8,2.3 -6.4,4.9 -0.5,0.5 -0.9,0.9 -1.3,1.4 0.2,0.2 0.3,0.2 0.3,0.2 z M 48.5,78 c 0.1,0 0.2,0 0.4,0 -0.1,0 -0.1,0.1 -0.2,0.1 -0.1,0 -0.1,0 -0.2,-0.1 z m 0.4,2.3 c 0,-0.1 0,-0.1 -0.1,-0.2 0,0 0.1,0 0.1,0 0,0.1 0.1,0.1 0.1,0.2 0,0 -0.1,0 -0.1,0 z m 0.3,-18 c 0,0 -0.1,-0.1 -0.1,-0.2 0,0 0.1,-0.1 0.2,-0.1 0,0 0.1,0.1 0.1,0.2 0,0 -0.1,0.1 -0.2,0.1 z m 85.7,12.8 v 0.1 l -0.2,-0.1 z m -1,-12.4 c 0.1,0 0.3,0.1 0.4,0.1 -0.4,0.2 -0.7,0.5 -1.1,0.7 -0.2,-0.2 -0.3,-0.3 -0.3,-0.4 0.4,-0.2 0.7,-0.3 1,-0.4 z"
         id="path4" />
      <polygon
         class="st0"
         points=""
         id="polygon6" />
      <path
         class="st0"
         d="m 113.3,35.1 h 0.1 v -0.2 c 0.1,-0.2 0,-0.3 0.1,-0.3 l -0.1,0.3 c 0.1,-0.2 0.1,0 0.1,0 0,-0.1 0.1,-0.2 0.1,-0.2 0,0 0,0 -0.1,0.1 0,-0.1 -0.1,-0.3 0,-0.4 0.1,-0.2 0.2,0 0.2,-0.2 0.4,-1.4 1.1,-2.8 1.6,-4.4 0.1,0 0,0 0,0.1 0.2,-0.7 0.2,-0.7 0.4,-1.3 0.1,-0.1 0.2,-0.1 0.2,-0.1 -0.1,0 0.9,-2.4 0.9,-2.4 L 116.6,26 c 0.1,-0.3 0.2,0 0.2,-0.1 -0.2,-0.2 0,0 -0.1,-0.1 0,0 0,0 0.1,0.1 -0.1,-0.1 0,0 0,-0.1 0,0 0,0 -0.1,-0.1 v -0.1 c 0,0 0.1,0.1 0.1,0.2 0,0 0.1,0 0.1,0.1 0,0.1 0,0.1 0,0 0,-0.2 0,-0.1 0,-0.3 0,-0.1 0,0.1 0,-0.1 -0.1,0.4 0,0.1 -0.1,0.4 l 0.1,-0.2 v 0.1 c 0.1,-0.1 0.1,-0.1 0,0 0.1,0 0.6,0.4 0.7,0.5 0,0 -0.1,-0.2 0.1,-0.1 -0.1,0.1 0.4,0.3 0.3,0.4 0.1,0.1 0.5,0.5 0.5,0.2 0,0.1 0.3,0.5 0,0.3 0.1,0.1 0.2,0.2 0.3,0.3 l -0.1,-0.2 c 0.2,0.2 0.3,0.4 0.5,0.5 l 2.9,3 1.4,-4.1 c 0,-0.1 0.1,-0.2 0,-0.4 l -0.1,0.1 c 0.1,-0.3 0.1,-0.5 0.3,-0.5 v 0.3 c 0.1,-0.4 0.2,-0.7 0.2,-1.1 v 0.1 c 0,-0.5 0.6,-2.9 0.6,-3.4 l -0.2,0.1 v -0.4 c 0,0 0.4,0.3 0.3,0.4 0.2,-0.8 1.9,-4.6 2.4,-5.2 0.2,-0.2 0.2,0.1 0.2,0.1 0.1,-0.3 -0.1,-0.2 0.1,-0.5 0.1,-0.1 0.1,0.1 0.1,0.1 0.1,-0.1 0.2,-0.2 0.1,-0.3 -0.1,0.1 -0.2,0 -0.4,0 l 0.2,-0.3 0.1,0.1 c 0,-0.1 -0.1,-0.3 0.1,-0.7 0.6,-0.9 0.7,-1.1 1.1,-1.7 0,0 0,0.2 0,0.3 0.1,-0.1 0.1,-0.2 0.2,-0.2 -0.2,0.1 0.1,-0.3 0,-0.2 0,-0.6 0.6,-0.9 0.7,-1.4 -0.2,-0.2 -2.8,-3.1 -3,-3.3 0.1,-0.1 0.2,-0.2 0.2,-0.3 -0.1,0 -0.3,0.2 -0.3,0.4 l 0.1,0.1 c -0.2,0.3 -0.1,0 -0.3,0.3 -0.1,-0.1 0,-0.3 0.2,-0.6 -0.2,0.2 -0.4,0.3 -0.3,0.5 -0.2,0.2 -0.1,-0.1 -0.3,0.1 -0.1,0.2 -0.1,0.5 -0.3,0.6 v 0 c -0.4,0.4 -0.3,0.8 -0.7,1.2 v -0.1 c -0.2,0.1 -0.3,0.5 -0.5,0.7 0.1,-0.1 0.2,-0.1 0.1,0.1 -0.3,0.3 -0.3,0.5 -0.6,0.7 v 0.3 c -0.8,1.1 -2.9,5.8 -3.3,7.1 v -0.1 c -0.1,0.3 -0.3,0.7 -0.4,1.2 -0.7,-1 0,0.1 -1,-1.3 -0.6,-0.8 -2,-3.3 -3.2,-5.7 -0.8,2.1 -1.6,4.7 -2,5.5 -0.2,1.2 -0.7,2.2 -1,3.1 v -0.1 c -0.2,0.5 -0.3,0.8 -0.5,1.3 -0.2,0.3 -0.3,0.8 -0.5,1.2 -0.4,0.9 -0.8,1.8 -0.9,2.1 l 0.1,-0.1 c -0.1,0.6 -0.3,0.4 -0.5,0.9 0.2,0 0.1,0.5 0.1,0.7 v 0 c -0.1,0.3 -0.1,1 -0.3,1.4 l -0.1,-0.1 c 0,0.4 -0.3,1.1 -0.4,1.4 -0.2,0.6 -0.7,1.6 -0.7,2.7 -0.1,0.2 -0.3,0.4 -0.4,0.6 v 0.1 c 0,0.5 3.6,1.4 4.5,0.6 z"
         id="path8" />
      <path
         class="st0"
         d="m 157.8,86.2 c -0.6,0 1.1,-0.3 0.6,-0.2 1.8,-0.7 4.4,-0.9 6,-1.5 0.1,-0.3 2.6,-4.8 2.5,-5.1 l -2.2,0.4 c -0.8,0.1 0.1,-0.2 -0.9,0 -0.7,0.2 -1.6,0.6 -2.4,0.7 v 0 c -2,0.3 -3,0.8 -4.8,1 l 0.2,-0.1 c -0.6,0.1 -1.9,0.4 -3,0.5 0.3,0 0.6,0 -0.1,0.1 -1.3,0.2 -2.2,0.4 -3.2,0.5 l -0.9,0.3 c -4.4,0.9 -21.3,2.9 -27,3.3 0,-0.2 -0.1,-0.3 -0.1,-0.5 v 0 c 0,-0.9 -0.4,-1.3 -0.4,-2 l 0.1,0.1 c 0,-0.3 -0.2,-0.8 -0.2,-1.3 0,0.1 -0.1,0.3 -0.1,0 0,-0.6 -0.2,-0.9 -0.2,-1.4 l -0.2,-0.4 c -0.3,-2 -2.7,-9.3 -3.4,-11.1 v 0.1 c -0.5,-1.5 -1.2,-3.5 -2,-5.6 -0.4,-1 -0.7,-2.2 -1.6,-3.6 -0.9,-1.4 -2.4,-2.3 -3.5,-2.5 -0.6,-0.4 -1.6,-0.4 -2.3,-0.5 0.4,0.1 0.3,0.1 0,0.1 -2.1,0.2 -0.2,0 -2.2,0.5 -1.2,0.3 -3.6,1.6 -5.1,3.7 -1.6,2.1 -2.2,4.5 -2.4,5.3 0,1 -0.3,2.1 -0.2,3 v -0.1 c -0.1,1 0,6 0.1,7 v -0.1 c 0.1,0.9 -0.1,0.8 -0.1,1.5 0.2,-0.1 0.3,0.7 0.4,0.9 v 0 c 0.1,0.4 0.3,1.4 0.3,2.1 h -0.1 c 0.1,0.6 0.2,1.8 0.2,2.2 0,1 0.1,2.7 0.6,4.1 v 0.2 c -2.8,0.2 -5.5,0.4 -7.7,0.6 -1.2,0 -2.8,0.1 -4,0.2 0.7,0 0.5,0.1 -0.1,0.1 -2.9,0.2 -1.5,0.2 -2.4,0.3 0,-0.7 -0.3,-1.1 -0.2,-1.7 v 0.1 c 0.1,-0.2 -0.1,-0.7 0,-1.2 0,0.1 -0.1,0.2 -0.1,0 0.1,-0.5 0,-0.9 0.1,-1.2 l -0.1,-0.4 c 0,-1.7 0,-9.4 -0.6,-11.6 v 0.1 c -0.3,-1.6 -0.8,-4 -2.4,-6.4 -1.5,-2.5 -4.7,-4 -6.6,-4 -0.6,-0.2 -1.4,-0.2 -2.1,-0.2 0.4,0 0.2,0.1 0,0.1 -1.9,0.2 -0.1,0 -2,0.5 -1.1,0.3 -3.5,1.5 -5.1,3.4 -1.7,1.9 -2.5,4.3 -2.7,5.1 -0.1,1 -0.4,2.1 -0.3,2.9 v -0.1 c -0.1,0.9 -0.6,5.8 -0.5,6.8 v -0.1 c 0.1,0.9 -0.1,0.8 -0.2,1.5 0.2,-0.1 0.3,0.7 0.3,1 v 0 c 0,0.3 0.2,1.8 0.3,2.2 h -0.1 c 0.1,0.6 0.2,1.8 0.2,2.2 0.1,0.9 0.1,2.2 0.4,3.4 -1.9,0.2 -3.4,0.4 -4.3,0.5 -1.4,0.3 -3.1,0.6 -4.6,0.8 -0.1,0.1 -0.2,0.2 -0.3,0.3 C 55,92.9 54.9,92.9 54.9,92.8 54.4,92.9 54,93 53.5,93.1 L 53.7,93 C 51.6,93.3 39.5,95.6 37,96.3 h 0.3 c -2.1,0.6 -1.9,0.3 -3.6,0.7 0.3,0.1 -1.5,0.7 -2.2,0.9 v 0 c -1.1,0.3 -3.4,1.1 -5.1,1.5 v -0.1 c -1.4,0.5 -4.1,1 -5.1,1.2 -1.3,0.2 -2.9,0.4 -4.5,0.5 0,0 0,0 0,0 -0.3,0.1 -0.7,0.2 -1,0.2 -0.1,0 -0.2,-0.1 -0.3,-0.2 -1,0 -2.1,0 -3,0 -0.6,-0.1 -1.3,-0.4 -1.9,-0.5 h -0.3 c 0.1,0 -2.3,1.6 -1.7,3.1 0,-0.1 0,-0.2 0.1,-0.2 0.1,0.1 0.3,0.1 0.3,0.2 0,0.1 0,0.2 -0.1,0.4 -0.1,-0.1 -0.2,-0.1 -0.3,-0.2 0.2,0.5 0.8,0.9 1.8,1.3 l -0.1,0.1 0.9,0.1 c 0.1,0 0.3,0 0.4,0 0.3,0 0.6,0 0.8,0.1 0.2,0 0.4,0 0.3,0.1 0.1,0 0.2,0 0.3,0.1 0.4,0 0.8,0 1.2,0 1.1,0 0.1,0.2 1.4,0.2 2.6,-0.1 5.1,-0.4 7.6,-0.8 0.1,-0.2 0.2,-0.3 0.3,-0.5 0,-0.1 0,-0.1 0,-0.2 0,0 0,0 0,0 -0.3,-0.4 -0.5,-0.8 0.1,-1.1 0.5,-0.2 1,-0.2 1.5,-0.3 0,0.2 0.1,0.5 0.1,0.6 -0.5,0.3 -1.1,0.5 -1.7,0.8 0,0 0,0 0.1,0.1 0,0.1 -0.1,0.1 -0.1,0.2 0,0.2 0,0.3 -0.1,0.5 4,-0.7 7.8,-1.8 11.6,-2.7 0.2,0 0,0 -0.2,0.1 1.3,-0.3 2.4,-0.6 3.5,-0.9 0.1,-0.2 0.1,-0.4 0,-0.5 -0.1,-0.2 -0.6,-0.2 -0.9,-0.3 -0.1,0 -0.2,-0.3 -0.2,-0.4 0,-0.1 0.2,-0.2 0.3,-0.2 0.5,-0.1 0.9,-0.1 1.4,-0.2 0,0 0,0 0,0.1 0.2,0 0.5,-0.1 0.7,-0.1 0.2,0 0.4,0.1 0.6,0.2 -0.1,0.2 -0.3,0.3 -0.4,0.5 -0.1,0.2 -0.3,0.4 -0.3,0.5 0,0 0,0 0.1,0.1 0.2,0 0.3,-0.1 0.5,-0.1 0.5,-0.1 0.6,0 0.8,0 -0.1,0 0.5,-0.2 1.4,-0.4 0,0 0,-0.1 0,-0.1 0.1,0 0.1,0 0.2,0 0,0 0,0 0,0.1 0.5,-0.1 1.1,-0.2 1.8,-0.4 0,0 0,0 0,-0.1 0.1,-0.1 0.2,-0.2 0.4,-0.2 0.5,-0.2 1,-0.4 1.5,-0.5 0.2,0 0.5,0.1 0.7,0.3 2,-0.4 3.7,-0.7 3.9,-0.7 L 50.9,99 c 1.9,-0.3 0.6,0.1 2.3,-0.2 0.6,-0.4 2.9,-0.5 3.5,-0.7 0,0 0.8,-0.1 0.8,0 0.2,-0.2 0.9,-0.2 1.4,-0.3 0.2,-0.1 -0.2,0 -0.3,0 l 1.2,-0.2 c 0.5,0 0.6,0 0.1,0.1 3.2,-0.6 18.9,-2.2 22.5,-2.4 -0.5,-0.1 -1.5,0.1 -2,0 0.9,-0.2 1.4,-0.1 1.8,-0.2 0.4,0.2 2.1,-0.1 2.8,0.1 l 0.3,-0.2 0.5,0.1 c 3.5,-0.4 1.8,-0.2 3.3,-0.3 0.1,-0.1 0.2,-0.1 0.3,-0.2 0,0 0.2,0.1 0.2,0.1 0,0 0,0 0,0.1 0.2,0 0.5,0 0.9,-0.1 2.1,-0.2 3.1,-0.5 4.3,-0.5 -0.2,0 -0.6,0 -0.1,-0.1 0.1,0.1 1.5,-0.2 1.7,-0.1 0.5,-0.1 2.3,-0.2 1.7,-0.3 0.3,0.1 1.9,0 0.9,0.1 0.5,0 1,0 1.4,-0.1 h -0.7 c 1.8,-0.1 2.7,-0.1 3.9,-0.3 h -0.7 c 1.1,-0.1 1.9,-0.2 2.4,0 l -1.1,0.1 c 1.8,-0.1 2.8,-0.2 4.3,-0.4 H 108 c 1.9,-0.3 11.6,-1.1 13.3,-1.5 l -0.8,-0.1 1.5,-0.2 c -0.2,0 -0.7,0.5 -0.8,0.5 3.2,-0.2 19.7,-2 22.6,-2.4 1.2,-0.1 0.2,0.2 0.2,0.2 1.4,-0.3 0.6,-0.2 1.8,-0.4 0.3,0 -0.1,0.1 -0.2,0.2 0.5,-0.1 1,-0.1 1.1,-0.2 -0.7,0 -0.4,-0.2 -0.7,-0.2 l 1.6,-0.2 -0.1,0.1 c 0.4,0 0.8,-0.4 2.4,-0.6 2.6,-0.4 5.4,-0.9 8,-1.4 0,0.1 -0.6,0.2 -1.1,0.4 0.2,-1 0.7,-1.1 1,-1.1 z m 5.7,-4.4 c 0,0.1 0,0.1 0.1,0.2 -0.1,0 -0.2,-0.1 -0.3,-0.1 0,0 0.1,-0.1 0.2,-0.1 z m -0.4,2 c 0,0.1 0.1,0.1 0.1,0.2 0,0.1 -0.1,0.1 -0.1,0.2 C 163,84.1 163,84 162.9,84 c 0.1,-0.1 0.2,-0.1 0.2,-0.2 z M 159,82.7 c 0.1,0 0.1,0 0.2,0 0,0.1 -0.1,0.2 -0.1,0.2 -0.1,0 -0.1,-0.1 -0.2,-0.1 0,0 0,-0.1 0.1,-0.1 z M 11.2,100.5 c 0.1,0 0.2,0.1 0.4,0.1 -0.1,0.1 -0.2,0.1 -0.3,0.2 -0.1,0 -0.1,0 -0.2,0 0,-0.1 0.1,-0.2 0.1,-0.3 z m -0.4,1.3 c 0.1,-0.1 0.1,-0.3 0.2,-0.3 0.2,0 0.4,0 0.6,0 -0.1,0.2 -0.2,0.5 -0.2,0.5 -0.2,0 -0.4,-0.1 -0.6,-0.2 z m 1.4,1.4 c -0.2,0 -0.5,-0.1 -0.7,-0.2 0.1,-0.1 0.3,-0.2 0.4,-0.2 0.2,0 0.4,0.1 0.7,0.1 -0.2,0.2 -0.3,0.3 -0.4,0.3 z m 0.6,1.6 c -0.1,0 -0.2,-0.1 -0.2,-0.1 0,-0.1 0.1,-0.2 0.2,-0.3 0.1,0 0.1,0.1 0.2,0.1 -0.1,0 -0.1,0.2 -0.2,0.3 z m 7.2,-0.6 c -0.1,-0.1 -0.3,-0.2 -0.5,-0.2 0.2,0 0.4,-0.1 0.6,-0.1 0.3,0 0.5,0.1 0.8,0.1 -0.3,0.1 -0.5,0.1 -0.9,0.2 z m 6.1,-4 c 0,-0.1 -0.1,-0.3 -0.1,-0.5 0.2,-0.1 0.3,-0.2 0.5,-0.3 0.1,0.2 0.2,0.4 0.2,0.5 -0.2,0.1 -0.4,0.2 -0.6,0.3 z m 3.2,0 c -0.1,0 -0.1,-0.1 -0.2,-0.1 0.1,0 0.2,0 0.2,0 0.1,0 0.1,0.1 0.2,0.1 0,0 -0.1,0 -0.2,0 z m 2.9,1.6 c -0.2,0 -0.4,-0.1 -0.5,-0.2 0,-0.1 0.1,-0.2 0.1,-0.2 0.2,0 0.4,0 0.6,0.1 0,0.1 -0.1,0.3 -0.2,0.3 z m 1.1,-2.5 c 0,-0.1 -0.1,-0.1 -0.1,-0.2 0.1,0 0.1,0 0.2,0.1 0,0 0,0.1 -0.1,0.1 z m 7.7,-1 c 0,-0.2 -0.1,-0.4 -0.1,-0.5 0,-0.1 0.1,-0.2 0.2,-0.3 0,0 0,0 0,0 0,0 0,0 0,0 -0.3,0.1 -0.5,0.2 -0.8,0.3 -0.2,0.1 -0.5,0.3 -0.7,0.4 0,-0.1 -0.1,-0.3 -0.1,-0.4 0.2,-0.3 0.5,-0.6 0.8,-0.6 0.2,-0.1 0.5,0.2 0.8,0.3 0,0 0,0 0.1,0 0,0 0,0 0,0.1 0.1,0.1 0.1,0.3 0.1,0.4 -0.1,0 -0.2,0.1 -0.3,0.3 z m 2.2,-0.8 -0.1,-0.1 h 0.2 z m 3.9,-1.4 c 0,0 -0.1,0 -0.1,0 -0.2,0.1 -0.3,0.2 -0.5,0.3 -0.1,0 -0.3,0 -0.4,0 0.1,-0.1 0.2,-0.3 0.4,-0.3 0.2,0 0.3,0 0.5,0 0,0 0,0 0.1,0 0,-0.3 0.1,-0.5 0.3,-0.8 0,0 0,0 0,0 -0.1,0.1 -0.2,0.1 -0.2,0.2 0,-0.1 0,-0.2 0,-0.3 0.1,0 0.2,0.1 0.2,0.1 0,0 0,0 0,0 v 0.1 c -0.1,0.3 -0.2,0.5 -0.3,0.7 z m 2.8,1.4 c -0.1,0 -0.2,-0.1 -0.3,-0.2 0.1,-0.1 0.2,-0.2 0.3,-0.2 0.1,0 0.2,0.1 0.3,0.2 -0.1,0.1 -0.2,0.2 -0.3,0.2 z m 1.9,-2.7 c -0.1,0 -0.1,0 0,0 -0.1,0 -0.1,0 -0.2,0 -0.1,0 -0.1,-0.1 -0.2,-0.1 0.1,0.1 0.2,0.1 0.4,0.1 -0.1,0 0,0 0,0 0.2,-0.2 0.4,-0.4 0.5,-0.6 0.1,0.1 0.1,0.2 0.2,0.4 -0.2,0.1 -0.5,0.1 -0.7,0.2 z m 3.2,1.5 c -0.4,-0.2 -0.8,-0.4 -1.2,-0.6 0,0 0.2,-0.4 0.2,-0.4 0.4,0.1 0.8,0.3 1.3,0.5 C 55.2,96 55,96.3 55,96.3 Z m 23.9,-6.7 c 0,-0.6 -0.1,-1.1 -0.2,-1.7 -0.4,-1.8 -0.8,-3.6 -1.2,-5.4 -0.3,-1.3 -1.1,-3 -2.4,-2.8 -0.6,0.1 -1.1,0.5 -1.4,1 -0.7,0.9 -1.2,2 -1.5,3.1 -0.6,2.1 -0.6,4.3 -0.4,6.4 0,0 0,0 0,0 -1,0.1 -2,0.2 -3,0.3 0,0 0,-0.1 0,-0.1 0,-0.1 0,0 0,0.1 0,0 0,0 0,0 -0.1,-0.2 -0.2,-0.4 -0.2,-0.7 -0.1,-0.4 0.2,-0.1 0.1,-0.5 -0.3,-2.3 -0.3,-4.6 -0.3,-7.1 0,-0.1 0,0 0.1,0.1 0,-0.9 0,-1.2 0,-2.1 0.1,-0.2 0.1,-0.2 0.2,-0.3 -0.1,0.1 0.2,-3.8 0.2,-3.9 l -0.2,-0.1 c 0.1,-0.7 0.2,-0.2 0.3,-0.9 -0.3,-0.3 0.1,-1.1 0,-1.3 0,0 0.1,-0.3 0.2,-0.3 -0.1,-0.1 0,-0.3 0,-0.5 0,-0.1 -0.1,0 -0.1,0.1 v -0.4 c 0.1,-0.1 0.2,-0.2 0.2,0 0.1,-0.5 0.6,-1.9 1.4,-2.9 0.8,-1.1 2,-1.7 2.4,-1.9 -0.2,-0.1 -0.4,0.1 -0.6,0 0.2,-0.2 0.3,-0.1 0.4,-0.3 0.2,0.2 0.5,-0.1 0.8,0.1 v -0.2 l 0.1,0.1 c 1,-0.3 0.2,-0.1 1.1,-0.2 0.5,0 0.8,-0.2 1.1,0 0,0 -0.1,-0.1 0,-0.1 0,0.1 0.4,0 0.4,0.2 0.1,0 0.5,0.2 0.5,0 0,0.1 0.3,0.3 0.1,0.3 0.1,0.1 0.2,0.1 0.3,0.2 L 77,68 c 0.4,0.2 0.5,0.4 0.8,0.5 l -0.1,-0.2 c 0.2,0.2 0.4,0.3 0.3,0.5 l -0.2,-0.2 c 0.2,0.2 0.3,0.3 0.8,0.8 l -0.1,-0.1 c 0.6,0.2 1.7,3.3 2,4 l 0.1,-0.3 0.2,0.5 c 0,-0.1 -0.5,-0.2 -0.5,-0.2 0.4,1 0.7,7.3 0.5,8.5 -0.1,0.5 -0.2,0.1 -0.2,0.1 0,0.6 0.1,0.2 0.1,0.7 0,0.1 -0.1,0 -0.1,-0.1 0,0.2 0,0.4 0,0.4 0.1,-0.3 0.2,-0.2 0.3,-0.3 v 0.6 h -0.1 c 0,0.1 0.3,0.4 0.2,1 0,1.1 0,2.2 0.1,3.3 -0.1,0 -0.1,-0.2 -0.2,-0.5 0,0.1 0,0.4 0,0.5 0.1,-0.3 0.1,0.5 0.1,0.2 0.2,0.5 0.2,1 0.3,1.5 -0.7,0.3 -1.5,0.4 -2.4,0.4 z m 32.6,2.1 c 0,0 -0.1,-0.1 -0.1,-0.2 0.1,-0.1 0.3,-0.1 0.4,-0.1 0,0 0.1,0.1 0.1,0.2 -0.1,0 -0.2,0.1 -0.4,0.1 z m 1.5,-1.2 c -0.2,0 -0.4,-0.1 -0.6,-0.2 0.1,-0.2 0.2,-0.3 0.2,-0.5 0.3,0.1 0.5,0.2 0.7,0.3 -0.1,0.1 -0.2,0.4 -0.3,0.4 z m 1.1,-3.8 c 0,-0.6 -0.1,-1.1 -0.2,-1.6 -0.4,-1.8 -0.8,-3.6 -1.2,-5.4 -0.3,-1.3 -1.1,-3 -2.4,-2.8 -0.6,0.1 -1.1,0.5 -1.4,1 -0.7,0.9 -1.2,2 -1.5,3.1 -0.6,2 -0.6,4.1 -0.4,6.2 -1,0.1 -1.9,0.1 -2.9,0.2 0.2,-0.2 0.3,-0.4 0.3,-0.6 h 0.1 l -0.1,-0.3 c 0,-0.3 -0.2,-0.5 -0.1,-0.5 l 0.1,0.5 c -0.1,-0.3 0.1,-0.1 0.2,0 0,-0.1 -0.1,-0.3 -0.1,-0.4 -0.1,-0.1 0,0.1 0,0.1 -0.1,-0.2 -0.3,-0.4 -0.3,-0.6 -0.1,-0.4 0.2,-0.1 0.1,-0.5 -0.3,-2.2 -0.2,-4.7 -0.4,-7.3 0,-0.1 0,0 0.1,0.1 -0.1,-1 -0.1,-1.2 -0.2,-2.2 0,-0.2 0.1,-0.3 0.1,-0.3 0,0.1 -0.1,-0.9 -0.2,-1.9 0,-1 0,-2 0,-2 h -0.2 c 0,-0.7 0.2,-0.2 0.2,-0.9 -0.3,-0.3 0.1,-1.1 0,-1.3 0,0 0.1,-0.3 0.1,-0.3 -0.1,-0.1 0,-0.3 0,-0.5 0,-0.1 -0.1,0 -0.1,0.1 v -0.4 c 0.1,-0.2 0.2,-0.2 0.2,0 0.1,-0.5 0.5,-2.1 1.3,-3.1 0.8,-1.2 1.9,-1.8 2.2,-2 -0.1,-0.1 -0.3,0.1 -0.5,0 0.2,-0.2 0.3,-0.1 0.4,-0.3 0.2,0.2 0.5,-0.1 0.7,0.1 v -0.2 l 0.1,0.1 c 0.8,-0.3 0.2,-0.1 0.9,-0.1 0.4,0 0.6,-0.1 0.8,0.1 0,0 0,-0.1 0,-0.1 0,0.1 0.2,0 0.2,0.2 0.1,0 0.2,0.2 0.3,0 0,0.1 0.1,0.3 -0.1,0.2 0,0.1 0.1,0.2 0.1,0.2 v -0.1 c 0.2,0.3 0.2,0.6 0.5,0.9 v -0.2 c 0.1,0.3 0.3,0.6 0.1,0.8 l -0.2,-0.4 c 0.2,0.6 0.4,1 0.7,1.6 l -0.1,-0.2 c 0.4,0.7 1.8,4.3 2.2,4.9 v -0.3 l 0.3,0.5 c 0,-0.1 -0.5,-0.1 -0.5,-0.2 0.5,1.2 2.5,7.5 2.6,8.6 0,0.5 -0.2,0.1 -0.2,0.1 0.2,0.5 0.2,0.2 0.3,0.7 0,0.1 -0.1,0 -0.1,-0.1 0.1,0.2 0.1,0.4 0.1,0.4 0,-0.3 0.2,-0.2 0.3,-0.3 l 0.1,0.6 h -0.1 c 0,0.1 0.4,0.3 0.5,0.9 0.3,1.3 0.4,2 0.6,3.1 -0.1,0 -0.1,-0.2 -0.2,-0.4 0,0.1 0.1,0.3 0.1,0.5 0.1,-0.3 0.2,0.4 0.2,0.2 0.3,0.5 0.3,1.1 0.4,1.7 -1.2,-0.1 -2.4,0 -3.8,0.1 z m 14.8,1.6 c 0,0 0,0 0,0 -0.1,0.1 -0.2,0 -0.2,0 0,0 0.1,0 0.2,0 0,0 0.1,-0.1 0,0 h 0.1 c 0,0.1 0,0.2 0.1,0.4 0,-0.2 -0.1,-0.3 -0.2,-0.4 0.1,0 0,0 0,0 z m 3.9,0.9 c -0.1,0 -0.1,-0.1 -0.2,-0.2 0.2,-0.1 0.4,-0.2 0.6,-0.2 0.1,0 0.1,0.2 0.2,0.3 -0.2,0.1 -0.4,0.1 -0.6,0.1 z m 1.8,-0.8 c -0.1,0 -0.1,-0.1 -0.2,-0.1 0.1,0 0.2,-0.1 0.3,-0.1 0,0.1 0.1,0.1 0.1,0.2 -0.1,0 -0.2,0 -0.2,0 z m 2.3,0.9 c -0.1,0 -0.2,-0.1 -0.4,-0.1 0,-0.1 0.1,-0.2 0.1,-0.2 0.1,0 0.2,0.1 0.4,0.2 0,0 -0.1,0.1 -0.1,0.1 z m 1.3,-0.6 v -0.1 l 0.2,0.1 z m 4.6,-2.3 c -0.1,0 -0.3,0 -0.4,-0.1 0,0 0,-0.2 0,-0.4 0.2,0.1 0.4,0.1 0.7,0.2 -0.1,0.1 -0.2,0.3 -0.3,0.3 z m 1,-2.4 c -0.1,0 -0.3,-0.1 -0.4,-0.2 0.1,-0.1 0.3,-0.1 0.4,-0.1 0,0 0.1,0.1 0.1,0.2 0,0 -0.1,0.1 -0.1,0.1 z m 1.4,2.3 c -0.1,-0.1 -0.1,-0.2 -0.2,-0.2 0,0 0.1,-0.2 0.1,-0.1 0.1,0 0.2,0.1 0.3,0.1 -0.1,0 -0.2,0.1 -0.2,0.2 z m 6.2,-0.5 -0.1,-0.1 h 0.2 z m 1.4,0.6 c -0.1,0 -0.1,0 -0.2,-0.1 0.1,-0.1 0.1,-0.1 0.2,-0.2 0,0 0.1,0.1 0.1,0.1 0,0.1 -0.1,0.1 -0.1,0.2 z"
         id="path10" />
      <polygon
         class="st0"
         points=""
         id="polygon12" />
    </g>
  </g>
</svg>
